<?xml version="1.0" encoding="utf-8"?>
<!-- Generator: Adobe Illustrator 22.0.0, SVG Export Plug-In . SVG Version: 6.00 Build 0)  -->
<svg version="1.1" xmlns="http://www.w3.org/2000/svg" xmlns:xlink="http://www.w3.org/1999/xlink" x="0px" y="0px"
	 viewBox="0 0 150 150" style="enable-background:new 0 0 150 150;" xml:space="preserve">
<style type="text/css">
	.st0{display:none;}
	.st1{fill:none;stroke:#000000;stroke-miterlimit:10;}
</style>
<g id="Calque_1" class="st0">
	
		<image style="display:inline;overflow:visible;" width="612" height="1024" xlink:href="Institut peau line/icones_SVG/693890594-1024x1024.jpg"  transform="matrix(0.24 0 0 0.24 11.5821 -95.505)">
	</image>
</g>
<g id="Calque_2">
	<path class="st1" d="M20.5,30.5c3.3,21.4,8.7,18.5,28.3,46.7"/>
	<path class="st1" d="M48.9,77.2c-9,21.6,1.9,50.1,15.2,64.5c3.2,3.5,6.6,7.1,10.3,8.5"/>
	<path class="st1" d="M80.4,54.2c67-1.3,34,81.7,37.8,96"/>
	<path class="st1" d="M85.9-0.5c-9.8,4.2-12.2,15.3-4,26.3"/>
	<path class="st1" d="M80.1,32.6c-4.2,14.1-2.9,20.7,0.3,21.7"/>
	<path class="st1" d="M74.4,103.7c15.2,1.2,28.8,22.3,30.8,46.5"/>
	<path class="st1" d="M101.1,94.7c-1.8,8.8-6.8,18.2-9.6,19.4"/>
	<path class="st1" d="M24.4-14.8c1.5,4.6-0.6,22.4-4.3,35"/>
	<path class="st1" d="M20.1,20.2c-2.3,17.3,8.7,26,25.5,17"/>
	<path class="st1" d="M60,38c9.1,4.5,22.8-2.5,21.9-12.2"/>
	<path class="st1" d="M81.9,25.7"/>
	<path class="st1" d="M80.1,32.6"/>
</g>
</svg>
