<?xml version="1.0" encoding="utf-8"?>
<!-- Generator: Adobe Illustrator 22.0.0, SVG Export Plug-In . SVG Version: 6.00 Build 0)  -->
<svg version="1.1" xmlns="http://www.w3.org/2000/svg" xmlns:xlink="http://www.w3.org/1999/xlink" x="0px" y="0px"
	 viewBox="0 0 956 938" style="enable-background:new 0 0 956 938;" xml:space="preserve">
<style type="text/css">
	.st0{fill:#18084C;stroke:#000000;stroke-miterlimit:10;}
	.st1{filter:url(#Adobe_OpacityMaskFilter);}
	.st2{fill:url(#SVGID_1_);stroke:#FFFFFF;stroke-miterlimit:10;}
	.st3{mask:url(#Calque_3_1_);}
	.st4{fill:#FFFFFF;}
	.st5{opacity:0.4;fill:#FFFFFF;}
	.st6{fill:url(#SVGID_2_);}
	.st7{fill:url(#SVGID_3_);}
	.st8{display:none;}
	.st9{fill:url(#SVGID_4_);stroke:#000000;stroke-width:3;stroke-miterlimit:10;}
	.st10{fill:url(#SVGID_5_);stroke:#000000;stroke-miterlimit:10;}
	.st11{fill:#9B870E;stroke:#000000;stroke-miterlimit:10;}
	.st12{stroke:#000000;stroke-miterlimit:10;}
	.st13{opacity:0.77;filter:url(#Adobe_OpacityMaskFilter_1_);}
	.st14{fill:url(#SVGID_6_);stroke:url(#SVGID_7_);stroke-miterlimit:10;}
	.st15{mask:url(#Calque_8_1_);}
	.st16{opacity:0.33;fill:url(#SVGID_8_);}
	.st17{fill:url(#SVGID_9_);}
	.st18{fill:url(#SVGID_10_);}
	.st19{fill:url(#SVGID_11_);}
	.st20{fill:url(#SVGID_12_);}
	.st21{fill:url(#SVGID_13_);}
</style>
<g id="Calque_1">
	<rect class="st0" width="956" height="938"/>
</g>
<defs>
	<filter id="Adobe_OpacityMaskFilter" filterUnits="userSpaceOnUse" x="127.3" y="116.5" width="723.4" height="443">
		
			<feColorMatrix  type="matrix" values="-1 0 0 0 1  0 -1 0 0 1  0 0 -1 0 1  0 0 0 1 0" color-interpolation-filters="sRGB" result="source"/>
		<feFlood  style="flood-color:white;flood-opacity:1" result="back"/>
		<feBlend  in="source" in2="back" mode="normal"/>
	</filter>
</defs>
<mask maskUnits="userSpaceOnUse" x="127.3" y="116.5" width="723.4" height="443" id="Calque_3_1_">
	<g class="st1">
		<linearGradient id="SVGID_1_" gradientUnits="userSpaceOnUse" x1="150.5991" y1="143.6297" x2="801.4009" y2="519.3703">
			<stop  offset="0" style="stop-color:#000000"/>
			<stop  offset="1" style="stop-color:#FFFFFF"/>
		</linearGradient>
		<rect x="175.5" y="100.5" class="st2" width="601" height="462"/>
	</g>
</mask>
<g id="Calque_3" class="st3">
	<g>
		<g>
			<g>
				<path class="st4" d="M246,388.5c1.9,0,1.9-3,0-3C244.1,385.5,244.1,388.5,246,388.5L246,388.5z"/>
			</g>
		</g>
		<g>
			<g>
				<path class="st4" d="M352,349.5c1.9,0,1.9-3,0-3C350.1,346.5,350.1,349.5,352,349.5L352,349.5z"/>
			</g>
		</g>
		<g>
			<g>
				<path class="st4" d="M474,333.5c1.9,0,1.9-3,0-3C472.1,330.5,472.1,333.5,474,333.5L474,333.5z"/>
			</g>
		</g>
		<g>
			<g>
				<path class="st4" d="M663,406.5c1.9,0,1.9-3,0-3C661.1,403.5,661.1,406.5,663,406.5L663,406.5z"/>
			</g>
		</g>
		<g>
			<g>
				<path class="st4" d="M544,379.5c1.9,0,1.9-3,0-3C542.1,376.5,542.1,379.5,544,379.5L544,379.5z"/>
			</g>
		</g>
		<g>
			<g>
				<path class="st4" d="M648,368c3.9,0,3.9-6,0-6C644.1,362,644.1,368,648,368L648,368z"/>
			</g>
		</g>
		<g>
			<g>
				<path class="st4" d="M331,528c3.9,0,3.9-6,0-6C327.1,522,327.1,528,331,528L331,528z"/>
			</g>
		</g>
		<g>
			<g>
				<path class="st4" d="M332,171c3.9,0,3.9-6,0-6C328.1,165,328.1,171,332,171L332,171z"/>
			</g>
		</g>
		<g>
			<g>
				<path class="st4" d="M206,292c3.9,0,3.9-6,0-6C202.1,286,202.1,292,206,292L206,292z"/>
			</g>
		</g>
		<g>
			<g>
				<path class="st4" d="M671,247c3.9,0,3.9-6,0-6C667.1,241,667.1,247,671,247L671,247z"/>
			</g>
		</g>
		<g>
			<g>
				<path class="st4" d="M517,271.1c1.4,0,1.5-2.3,0-2.3C515.6,268.9,515.5,271.1,517,271.1L517,271.1z"/>
			</g>
		</g>
		<g>
			<g>
				<path class="st4" d="M638,467.1c1.4,0,1.5-2.3,0-2.3C636.6,464.9,636.5,467.1,638,467.1L638,467.1z"/>
			</g>
		</g>
		<g>
			<g>
				<path class="st4" d="M363,288.8c1,0,1-1.5,0-1.5C362,287.3,362,288.8,363,288.8L363,288.8z"/>
			</g>
		</g>
		<g>
			<g>
				<path class="st4" d="M469,529.8c1,0,1-1.5,0-1.5C468,528.3,468,529.8,469,529.8L469,529.8z"/>
			</g>
		</g>
		<g>
			<g>
				<path class="st4" d="M549,160.8c1,0,1-1.5,0-1.5C548,159.3,548,160.8,549,160.8L549,160.8z"/>
			</g>
		</g>
		<g>
			<g>
				<path class="st4" d="M128,131.8c1,0,1-1.5,0-1.5C127,130.3,127,131.8,128,131.8L128,131.8z"/>
			</g>
		</g>
		<g>
			<g>
				<path class="st4" d="M850,119.8c1,0,1-1.5,0-1.5C849,118.3,849,119.8,850,119.8L850,119.8z"/>
			</g>
		</g>
	</g>
	<circle class="st5" cx="478" cy="338" r="221.5"/>
	<linearGradient id="SVGID_2_" gradientUnits="userSpaceOnUse" x1="324.5147" y1="249.3852" x2="631.4854" y2="426.6148">
		<stop  offset="0" style="stop-color:#006DB9"/>
		<stop  offset="1" style="stop-color:#3018A1;stop-opacity:0"/>
	</linearGradient>
	<circle class="st6" cx="478" cy="338" r="177.2"/>
	<linearGradient id="SVGID_3_" gradientUnits="userSpaceOnUse" x1="362.886" y1="271.5389" x2="593.114" y2="404.4611">
		<stop  offset="0" style="stop-color:#006DB9"/>
		<stop  offset="1" style="stop-color:#3018A1;stop-opacity:0"/>
	</linearGradient>
	<circle class="st7" cx="478" cy="338" r="132.9"/>
</g>
<g id="Calque_4" class="st8">
	
		<image style="display:inline;overflow:visible;" width="1600" height="900" xlink:href="../Institut peau line/icones_SVG/spaceship_axe_1080.jpg"  transform="matrix(0.25 0 0 0.25 278 274.125)">
	</image>
</g>
<g id="Calque_5">
	<linearGradient id="SVGID_4_" gradientUnits="userSpaceOnUse" x1="370.1272" y1="446.9309" x2="598.5088" y2="446.9309">
		<stop  offset="0" style="stop-color:#947D13"/>
		<stop  offset="1" style="stop-color:#251F00"/>
	</linearGradient>
	<path class="st9" d="M518.9,440.5c3.2,0.7,24.9,5.3,78.6,21c9-30-45-67.2-116.4-56.4c-4.2,0.6-6.6,1.8-16.8,0
		c-18.2-3.3-28.1-6.6-74.4-19.2l47.4,21.6c-4.8,0-7.6-0.5-10.8,0.6c-3.6,1.2-2.2,4.9-1.8,5.4c4.2,5.4,5.4,6.6,8.4,10.2l-63-29.4
		c26.3,20.5,48.6,38.4,43.8,45c-2.1,2.8-6.1,9.5-6.6,10.8c-12,35.4,61.8,73.8,144.6,51c-18.6-10.8-55.2-42-58.8-46.8
		c0.1-1.6,0.2-3.1,0.4-4.5c2.5,5.9,7.9,9.9,14,9.9c0.5,0,1.1,0,1.6-0.1c5.5-2.1,9.2-6.3,9.2-11.3c0-2.9-1.3-5.7-3.5-7.8
		C516.3,440.6,518.6,440.4,518.9,440.5z"/>
	<linearGradient id="SVGID_5_" gradientUnits="userSpaceOnUse" x1="383.9272" y1="443.5266" x2="584.6034" y2="443.5266">
		<stop  offset="0" style="stop-color:#2A0137"/>
		<stop  offset="1" style="stop-color:#16001D"/>
	</linearGradient>
	<path class="st10" d="M477.5,406.9c-3.3,0.6-15.8-1.5-24-3c-13.8-2.5-18.1-4.6-51.1-14.7c16.5,5.8,59.9,24.1,63.1,27.9
		c0.7,0.9,1.3,1.5,1.7,2c-2-1.2-4.7-2.1-7.7-2.6c-3.5-0.6-7.3,2.6-8.7,6h-0.3l-0.8,4c-0.2,1.1,0.5,2.2,1.6,2.5l2.9,0.7
		c-1.4-0.1-4.9-0.4-4.9-0.2c-3.1-0.3-6.8-1-11.4-2.2l-54-25.8c19.8,13.6,40.6,29.9,36.6,36c-33.6,51.6,75.6,70.1,106.5,55.5
		c-8.7-6.9-23.6-19.2-33.3-30.3c-0.4,0.2-7.8-7.3-8.4-11.4c-1.9-1.3,7.1-26.9,15.6-19.8c1.6,1.3,2.3,1.7,3,3.6
		c0.6-0.1,25.2,1.2,33.3,3.3c10,2.5,23.2,4.3,46.5,11.1C591.5,429.1,546.5,394.9,477.5,406.9z"/>
	<g id="Calque_7">
		<g>
			<path class="st11" d="M497.9,477.1c-10.6-11.2-16-20.9-17.8-29.1c-9.6-2.9-19.6-7.7-26.3-12.5c-1.5,0.6-3.1,0.9-4.8,0.9
				c-0.6,0-1.1,0-1.7-0.1c-4.1,1.6-8.9,2.3-14.2,1.9c-1-0.1-2-0.2-3-0.3c0.4,1,0.6,2,0.6,3c0,2.8-1.8,5.9-4.5,8.5
				c7.6,5.4,13.8,13.4,14.1,20c6.7,0.5,15.6,3,19.3,9.8c2.2-0.6,4.6-0.9,7.1-0.9c6.4,0,11.9,2,14.9,5c3.4-2.9,8.4-4.7,13.9-5
				c1-0.1,2-0.1,3-0.1c0.1-0.1,0.1-0.2,0.2-0.3C498.4,477.6,498.2,477.4,497.9,477.1z"/>
		</g>
		<g>
			<path class="st11" d="M559.8,428.1c-13.9,1.9-22,5.3-26.1,9.5c-10.5-2.7-21.9-4.4-30-4.6c-1.4-1-2.9-2-4.6-2.8
				c-0.6-0.3-1.2-0.5-1.7-0.7c-3.7-2.8-8.3-5.6-13.8-7.8c-1-0.4-2.1-0.8-3.1-1.2c0.6-0.4,1.1-0.9,1.4-1.6c0.8-1.7-0.2-4.5-2.2-7.3
				c9.1,0.3,17.7-1.8,19.9-5.6c6.9,2.8,16.6,5.5,22.3,3c2,1.4,4.3,2.7,6.9,3.8c6.4,3,12.6,4.3,16.5,3.9c2.6,3.3,7.1,6.8,12.6,9.5
				c1,0.5,2,1,2.9,1.4c0,0.1,0.1,0.2,0.1,0.3C560.5,428.1,560.1,428.1,559.8,428.1z"/>
		</g>
	</g>
</g>
<g id="Calque_6">
	<path class="st12" d="M449.6,428.2c0-6.6,5.1-12.9,9.9-11.7l-5.4-4.2c-6.6-1.8-12.6,9.6-11.4,15L449.6,428.2z"/>
	<path class="st12" d="M482.9,423.7l-5.4,1.2c-3-2.4-8.4,1.2-10.2,9.6l3,3.6l0.3,0.3c3.3-9.9,9.6-16.2,13.8-14.4L482.9,423.7z"/>
	<path class="st12" d="M504.2,450.4c0.4,0.8,5.2,1,7.2,1.2c1.2-1.8,2.7-4.5,5.4-3.6c0.1-2.7-1.1-6.7-3.6-7.8
		C510.5,439.3,504.5,444.1,504.2,450.4z"/>
	<path class="st12" d="M515.9,451.3c0,1-1.1,2.4-1.8,2.4s-0.6-0.2-0.6-1.2s1.1-2.4,1.8-2.4C516,450.1,515.9,450.3,515.9,451.3z"/>
	<path class="st12" d="M503,454.6c0,2,1.1,3.6,2.4,3.6c2.9-0.3,5.7-1.7,6.6-3c-0.3,0-0.6-0.5-0.6-1.2c-4.3,0-7.8-0.3-7.8,0
		L503,454.6z"/>
	<path class="st12" d="M429.5,408.1c-4.8-0.6-7.8,3.6-3.6,7.2C425.3,411.7,426.5,409.3,429.5,408.1z"/>
	<path class="st12" d="M447.5,405.7l-6.6-1.2l-4.2,3.6c0,0,5.1,0.3,6.6,0.6c1.7,0.3,6,1.8,6,1.8L447.5,405.7z"/>
	<polygon class="st12" points="438.5,415.9 429.5,412.3 428.3,410.2 439.1,415.3 	"/>
</g>
<defs>
	<filter id="Adobe_OpacityMaskFilter_1_" filterUnits="userSpaceOnUse" x="425.4" y="409.5" width="89" height="40.4">
		<feColorMatrix  type="matrix" values="1 0 0 0 0  0 1 0 0 0  0 0 1 0 0  0 0 0 1 0"/>
	</filter>
</defs>
<mask maskUnits="userSpaceOnUse" x="425.4" y="409.5" width="89" height="40.4" id="Calque_8_1_" style="opacity:0.77;">
	<g class="st13">
		<linearGradient id="SVGID_6_" gradientUnits="userSpaceOnUse" x1="407.9272" y1="430.9" x2="531.5272" y2="430.9">
			<stop  offset="0" style="stop-color:#FFFFFF"/>
			<stop  offset="1" style="stop-color:#FFFFFF;stop-opacity:0.3"/>
		</linearGradient>
		<linearGradient id="SVGID_7_" gradientUnits="userSpaceOnUse" x1="407.4272" y1="430.9" x2="532.0272" y2="430.9">
			<stop  offset="0" style="stop-color:#000000"/>
			<stop  offset="0.4089" style="stop-color:#060606;stop-opacity:0.9861"/>
			<stop  offset="0.4369" style="stop-color:#060606;stop-opacity:0.9824"/>
			<stop  offset="0.5832" style="stop-color:#434343;stop-opacity:0.8051"/>
			<stop  offset="0.9194" style="stop-color:#DADADA;stop-opacity:0.3977"/>
			<stop  offset="1" style="stop-color:#FFFFFF;stop-opacity:0.3"/>
		</linearGradient>
		<path class="st14" d="M519.5,457.9h-99.6c-6.6,0-12-5.4-12-12v-30c0-6.6,5.4-12,12-12h99.6c6.6,0,12,5.4,12,12v30
			C531.5,452.5,526.1,457.9,519.5,457.9z"/>
	</g>
</mask>
<g id="Calque_8" class="st15">
	<linearGradient id="SVGID_8_" gradientUnits="userSpaceOnUse" x1="507.1029" y1="444.5811" x2="513.7297" y2="448.4071">
		<stop  offset="0" style="stop-color:#FFFFFF"/>
		<stop  offset="1" style="stop-color:#3018A1;stop-opacity:0"/>
	</linearGradient>
	<path class="st16" d="M505.5,449c0.3,0.6,3.6,0.7,5,0.8c0.9-1.3,1.9-3.2,3.8-2.5c0.1-1.9-0.8-4.7-2.5-5.5
		C509.9,441.3,505.7,444.6,505.5,449z"/>
	<linearGradient id="SVGID_9_" gradientUnits="userSpaceOnUse" x1="425.5089" y1="409.7986" x2="426.7489" y2="410.5146">
		<stop  offset="0" style="stop-color:#FFFFFF"/>
		<stop  offset="1" style="stop-color:#3018A1;stop-opacity:0"/>
	</linearGradient>
	<path class="st17" d="M427.3,409.5c-1.1-0.1-1.8,0.1-1.9,0.5c-0.2,0.4,0.1,0.9,0.7,1.6C426.3,410.7,426.8,410,427.3,409.5z"/>
	<linearGradient id="SVGID_10_" gradientUnits="userSpaceOnUse" x1="428.2776" y1="410.3073" x2="438.5767" y2="416.2534">
		<stop  offset="0" style="stop-color:#FFFFFF"/>
		<stop  offset="1" style="stop-color:#3018A1;stop-opacity:0"/>
	</linearGradient>
	<polygon class="st18" points="429.5,412.3 438.5,415.9 439.1,415.3 428.3,410.2 	"/>
	<linearGradient id="SVGID_11_" gradientUnits="userSpaceOnUse" x1="444.8159" y1="418.2282" x2="451.981" y2="422.365">
		<stop  offset="0" style="stop-color:#FFFFFF"/>
		<stop  offset="1" style="stop-color:#3018A1;stop-opacity:0"/>
	</linearGradient>
	<path class="st19" d="M446.9,415.3c-1.8,2-3.2,4.7-3.8,7.3c2.1,1.2,4.4,2.3,6.8,3.6c0.5-3.2,2.1-6.2,4.2-8
		C451.5,417.1,449.1,416.2,446.9,415.3z"/>
	<linearGradient id="SVGID_12_" gradientUnits="userSpaceOnUse" x1="468.919" y1="429.6985" x2="473.652" y2="432.4311">
		<stop  offset="0" style="stop-color:#FFFFFF"/>
		<stop  offset="1" style="stop-color:#3018A1;stop-opacity:0"/>
	</linearGradient>
	<path class="st20" d="M476.1,428c-1.5-0.7-2.9-1.4-4.4-2.1c-1.8,1.7-3.5,4.6-4.3,8.6l0.2,0.2c1.3,0.6,2.6,1.2,3.8,1.7
		C472.7,433.1,474.3,430.2,476.1,428z"/>
	<linearGradient id="SVGID_13_" gradientUnits="userSpaceOnUse" x1="505.0289" y1="446.592" x2="509.284" y2="449.0486">
		<stop  offset="0" style="stop-color:#FFFFFF"/>
		<stop  offset="1" style="stop-color:#3018A1;stop-opacity:0"/>
	</linearGradient>
	<path class="st21" d="M506.1,444.8c-0.7,1.2-1.3,2.5-1.6,3.9c2.9,0.6,4.7,0.7,5,0C509.8,448,508.6,446.6,506.1,444.8z"/>
</g>
</svg>
