<?xml version="1.0" encoding="utf-8"?>
<!-- Generator: Adobe Illustrator 22.0.0, SVG Export Plug-In . SVG Version: 6.00 Build 0)  -->
<svg version="1.1" xmlns="http://www.w3.org/2000/svg" xmlns:xlink="http://www.w3.org/1999/xlink" x="0px" y="0px"
	 viewBox="0 0 150 150" style="enable-background:new 0 0 150 150;" xml:space="preserve">
<style type="text/css">
	.st0{display:none;}
	.st1{fill:#F80000;stroke:#000000;stroke-miterlimit:10;}
	.st2{fill:none;stroke:#000000;stroke-miterlimit:10;}
</style>
<g id="Calque_1" class="st0">
	
		<image style="display:inline;overflow:visible;" width="800" height="800" xlink:href="Institut peau line/icones_SVG/vernis.jpg"  transform="matrix(0.125 0 0 0.125 25 25)">
	</image>
</g>
<g id="Calque_4">
	<path class="st1" d="M92.9,104c-1.2,6.1-1.6,13.6-5.2,17c-3.2,3.1-8.5,2.6-13.4,2.6c-5.1,0-10.4,0.6-13.4-2.8
		c-3-3.3-3.7-10.7-5-16.8c-0.7-3.4-3.4-10.5-1.4-14.4c3-5.7,13.4-54.1,20.3-54.1c6.9,0,16.2,49,19.8,54.3
		C96.8,93,93.7,99.9,92.9,104z"/>
	<path class="st2" d="M104.2,135.4H46.7c-2.3,0-4.2-1.9-4.2-4.2V80.7c0-2.3,1.9-4.2,4.2-4.2h57.5c2.3,0,4.2,1.9,4.2,4.2v50.4
		C108.4,133.5,106.5,135.4,104.2,135.4z"/>
</g>
<g id="Calque_2">
	<rect x="58.8" y="18.4" width="31" height="58.1"/>
</g>
<g id="Calque_3">
	<ellipse cx="74.3" cy="18.4" rx="15.5" ry="3"/>
	<ellipse cx="74.3" cy="76.5" rx="15.5" ry="3"/>
</g>
</svg>
