<?xml version="1.0" encoding="utf-8"?>
<!-- Generator: Adobe Illustrator 22.0.0, SVG Export Plug-In . SVG Version: 6.00 Build 0)  -->
<svg version="1.1" xmlns="http://www.w3.org/2000/svg" xmlns:xlink="http://www.w3.org/1999/xlink" x="0px" y="0px"
	 viewBox="0 0 150 150" style="enable-background:new 0 0 150 150;" xml:space="preserve">
<style type="text/css">
	.st0{display:none;}
	.st1{fill:none;stroke:#000000;stroke-miterlimit:10;}
</style>
<g id="Calque_1" class="st0">
	
		<image style="display:inline;overflow:visible;" width="600" height="401" xlink:href="Institut peau line/icones_SVG/bouche-maquillage-rouge-a-levre.jpg"  transform="matrix(0.2 0 0 0.2 15 34.4)">
	</image>
</g>
<g id="Calque_2">
	<path class="st1" d="M27.2,83.6C35.4,71.7,43,58.9,49,50.2c2.7-3.9,3.3-7.6,6.7-9c1.2-0.5,2.6-0.3,3.9-0.3"/>
	<path class="st1" d="M27.2,83.6c10.4,10.1,34.1,17.5,37.8,9.6"/>
	<path class="st1" d="M47,77.3c11.5-2.6,21.2,2.9,18,15.9"/>
	<path class="st1" d="M47,77.3c-6-8.8,8.5-15.9,15.1-24.4c2.8-3.6-5-12-2.4-12"/>
	<path class="st1" d="M65,93.2c0.2,3.3-5.1,3.5-7,4.9c-3.5,2.6-0.3,11,3.2,17.2"/>
	<path class="st1" d="M59.7,40.9c-1.4-0.9-0.3-2.2-1.8-2.7c-7.9-2.3-14-8.6-14.5-12.7"/>
	<path class="st1" d="M27.2,83.6c12.6-12.5,22.4-22.5,25.5-22.4"/>
	<path class="st1" d="M30.4,85.5c21.1-3.7,31.3-7.3,16.5-8.3"/>
	<path class="st1" d="M86.7,88c6.8-4.1,17.2-10.5,24.4-13.7"/>
	<path class="st1" d="M103.2,115.3c9.1-2.4,20.9-8.3,26.6-13.1"/>
	<line class="st1" x1="111.1" y1="74.3" x2="129.8" y2="102.2"/>
	<line class="st1" x1="129.8" y1="102.2" x2="137.2" y2="113.9"/>
	<line class="st1" x1="86.7" y1="88" x2="103.2" y2="115.3"/>
	<line class="st1" x1="89.2" y1="85.5" x2="77.8" y2="66.4"/>
	<line class="st1" x1="107.7" y1="74.9" x2="95" y2="53.3"/>
	<path class="st1" d="M83.5,44c2.3-1.1,7.1,3.8,11.5,9.3"/>
	<path class="st1" d="M77.8,66.4c3-11.1,6.3-20.8,5.7-22.3"/>
</g>
</svg>
