<?xml version="1.0" encoding="utf-8"?>
<!-- Generator: Adobe Illustrator 22.0.0, SVG Export Plug-In . SVG Version: 6.00 Build 0)  -->
<svg version="1.1" xmlns="http://www.w3.org/2000/svg" xmlns:xlink="http://www.w3.org/1999/xlink" x="0px" y="0px"
	 viewBox="0 0 500 500" style="enable-background:new 0 0 500 500;" xml:space="preserve">
<style type="text/css">
	.st0{display:none;}
	.st1{fill:#FF002B;stroke:#000000;stroke-width:2;stroke-miterlimit:10;}
</style>
<g id="Calque_1" class="st0">
	
		<image style="display:inline;overflow:visible;" width="1500" height="1500" xlink:href="../logos/peauLine.jpg"  transform="matrix(0.2557 0.1443 -0.1443 0.2557 166.4692 -52)">
	</image>
</g>
<g id="Calque_2">
	<g>
		<path class="st1" d="M427.5,257.3c6-1.8,57.9-13.7,55.4-24.1c-0.4-1.8-22.3-11.8-23.9-11.4c-7.5,2-5.6,18.7-18,14.1
			c-0.2,0.2,24.5-18.8,11.6-20.6c-5-0.7-5.1,9.8-10.4,7.8c1.5-2.4,8.7-9.3,4.1-13.3c-7.9,3.2-8.9,13.6-17.1,16.5
			c3.2-3.2,19.6-21.3,6.5-23.5c-9.2-1.5-8.1,15.2-18.4,16c3.1-2.4,17.7-17.4,11-22.1c-4.1-2.8-14.1,7.2-19.2,8.7
			c2.7-2.5,17.9-15,7.3-18.5c-7.2-2.4-8.1,6.7-14.8,7.1c5.2-3.4,7.4-10.9,4.9-16.6c-1.1,4.4-5.3,7.9-9.9,8.2
			c4.9-6,10.5-29.5-4.7-25.5c-6.2,1.6-17.2,33.7-24.3,39.3c12.4-19.7,25-41.4,7-60.1c-3.7-3.9-27.7-17.7-33.1-16.4
			c-6.5,1.6-7.3,14.7-12.5,14.7c9.3-27-14.6-48.8-31.4-19.8c8.9-12.6,7.3-36.6-7.1-13.7c-12.7,20.1-13,48.9-26.1,70.5
			c8.2-11.2,27.9-64.2,21.1-79c-11.5-25.3-17.1,8.9-26.9,16.8c-4.4-23-21,34.7-21.6,36c4-10.2,6.4-38,0.7-47.8
			c-4.7-8.2-32.8-23.8-43.2-23.6c-11.3,0.2-39.9,20.4-49.5,27.9c-24.8,19.3-1.4,17.5-11,41.2c-4.7-8-28.1-34.6-34-8.2
			c-2.2,9.6,19.5,33.2,20.4,46.3c-3.7-3.4-15.5-30.8-20.3-31.2c-7.6-0.6,10.7,36.3,11.4,38.6c-9.6-6.6-15.2-20.6-25.6-26.3
			c-3.8,4.3,18,32.6,20.3,36.1c-12-6.8-16-25.8-27.1-33c-5.2,4.2,9.7,23.2,11.7,26.3c-0.6-0.2-20.6-25.1-20.4-17.7
			c0.3,9,13.8,8.8,11.6,20.8c-3.1-4.2-10.8-6.4-13.2-11c-3.5,3.6,1,10.7,2.8,13.6c-0.7-0.4-10.7-5.6-12.6-4.2
			c-1.9,1.4,10.5,16.7,6.6,11.3c-4.2-0.1-8.2-2.4-10.4-6c0.8,12,6.5,9.9,1.2,16.2c0.7-0.9-9.8-0.4-10.5,0c-4.5,2.4-9,12.3-13.3,15.6
			c1.2,7,44.3,9,36.3-6c7.1,3.3,17.4,9.8,19.2-3.4c7.4,12.7,13.5,5.5,12.2-5.1c2,3,4.8,4.8,8.2,5.5c4.9-2.6-11.6-21.2-11.7-21.4
			c7,3.9,14.2,7.4,21.6,10.5c0.4-3.1,0.3-6.3-0.2-9.4c6.1,3.2,9.3,10.2,15,14.1c-0.7-2.3-0.5-4.8,0.4-7c1.4,2.7,7.3,11.2,11.9,6.2
			c-0.4,0.5-21.3-37.6-22.2-38.6c5.8,6.6,29.7,44.2,39.7,38c6.6-4.1-1.3-26,1.4-26.3c5.5-0.7,6.5,13.9,10.6,16.5
			c2.7-4.4-2.2-17.8-3.3-21.7c4.2,7.2,5,16,9.4,23c0.9-5.1,1-10.4,0.4-15.5c11.4,25.9,16.5,7.9,9.4-9.5c-9.9-24-22.3-43.5-25.5-71
			c8.8,22.1,17.5,44.1,26.3,66.2c1.4-20.7,1.4-41.4,0-62.1c2.5,8.9-1,85.4,11.1,84.3c5.4-0.5,0-9.7,4.6-11.4
			c4.8,7.9,24.7,33.4,18.3,8.4c-1.5-5.7-12.9-13.7-16-20.6c-4.4-9.8-5.2-20.8-4.9-31.5c7,20,3.4,37.4,23.3,49.8
			c6.5,4.1,10.6,6.1,18,6.7c6.6,0.5,32.6-14.7,21.3,4c4.7,3.1,7.2-8.9,7.6-9.4c9.3,16.4,25.5,6.3,28.3-13.5c3.4,6,3.8,13.5,1.2,19.8
			c4.4-2,8.4-4.8,11.8-8.2c0.8,4.8,0.7,9.7-0.1,14.5c3.4-1.5,6.7-3.6,9.6-6c-2.3,20.4,9.2,4.4,15.2,7.8c-1.5,2.1-2.9,4.1-4.4,6.2
			c1.4,0.9,18.5,9,19.2-0.4c3.8,14.9,9.2,4.2,15.1,7.5c11.2,6.2,11.6,10.4,28.7,3.1c-18.7,20.1-5.3,9,9,5.8
			c-4.7,3.3-7.9,7.4-9.6,12.4c1.7,6.1,17.2-4.6,20.6-5.6c-5.7,17.4-8.8,16,13.2,7.1c-3.7,2.4-7.2,5-10.6,7.8
			C424.1,256,425.8,256.7,427.5,257.3z"/>
		<path class="st1" d="M433,264"/>
		<path class="st1" d="M432.2,264.1"/>
		<path class="st1" d="M404,332.6c-3.4,11.2-10,8.6-13.8,0.2c-6.4,7.7,5.7,17.4-10.4,20.2c-11.3,1.9-8.4-7.8-10.7-16.7
			c0.4,18.8-3.1,37.6-17,18.2c-11.2-15.8-9.6-65.6-25.6-73.9c5.1,21.3,24.8,55.9,19.9,77.2c-8.3,36.2-17.3-3.9-26.2-15.1
			c-6.6,10.7,14.5,32.1-5.6,40.4c-12.8,5.3-6.4-18.3-8.6-24.4c-1.8,19.3-9.5,40-26.1,21.1c-1,6.5-4,19.5-14.2,12.7
			c-7-4.7-1.8-36.1-2.5-43.9c-3.7,14.3,2.9,41.6-16,46.4c-18.1,4.6-21.3-23.2-24.2-35.2c-0.3,18.8,10.1,31.8-12.2,33.5
			c-14,1.1-40.6-16.7-32.9-33.6c-8.1,15.3-7.6,20.8-25.2,13.6c-8.8-3.6-29.7-22.9-27.2-33.9c-2.7,3.7-4.5,7.7-5.4,12.1
			c-8.2,5.2-8.7-29.7-8.7-29c0.8-17.7,9.6-32.9,14-49.9c-1.8,6-15.1,62.6-19.8,63.2c-14.2,2-27-28.7-29.3-39
			c-3.9-17.5-1.2-37.9,14.5-48.6c7.9-5.4,47.4-3.3,40.9,2.2c20.9-22,28.1,8.9,25.2,25.2c-4.3,24.3-17.1,46.8-16.8,71.9
			c8.9-19.7,16.8-99.5,45.1-96c34.1,4.2,13.7,97.9,7.6,118.6c0.7-18.3,10-37.6,12.8-56.1c1.7-11.5,1-46.7,12.8-53.2
			c25.5-14,19.7,80.9,24.1,93.2c6.2-9.9-7.1-98.5,13.1-93.8c6.7,1.5,12,31.9,13.5,38.5c4.2,18-1.2,41.4,5.8,58.2
			c2-18.3-15.6-95.9,2.8-106.9c9.7-5.9,20.2,76.2,21.9,85.4c-3.9-7-0.5-21.3-1.2-29.7c-1.1-13.4-6.4-27.5-6.2-40.8
			c0.5-26.4,20.5-21.4,42.8-27.2c6.8-1.8,14.6-1.2,20.4,2.8c2.5,1.7,4.4,4.1,6.2,6.5c9.6,13.5,14.9,29.4,20.1,45
			c3,9.1,6.1,18.2,7.5,27.6c1.6-9.3-0.9-18.8-3.3-27.9c-3-11.4-6-22.7-9-34.1c-0.5-1.9-0.7-4.4,1.1-5.1c0.7-0.3,1.4-0.2,2.1,0
			c12.8,2.8,20.1,18.1,32.9,20.7c8.6,1.7,17.1-2.7,24.7-7c2,6,1.7,12.6,0.3,18.8c-1.5,6.2-4.1,12-6.8,17.7
			c-5.5,11.3-11.9,22.6-22.2,29.7c-0.3-7.7-4.5-14.6-8.4-21.2c1.7,4.7,3,9.6,3.8,14.6C404.8,328.3,404.7,330.3,404,332.6z"/>
	</g>
</g>
</svg>
