<?xml version="1.0" encoding="utf-8"?>
<!-- Generator: Adobe Illustrator 22.0.0, SVG Export Plug-In . SVG Version: 6.00 Build 0)  -->
<svg version="1.1" xmlns="http://www.w3.org/2000/svg" xmlns:xlink="http://www.w3.org/1999/xlink" x="0px" y="0px"
	 viewBox="0 0 150 150" style="enable-background:new 0 0 150 150;" xml:space="preserve">
<style type="text/css">
	.st0{display:none;}
	.st1{fill:#FFFFFF;stroke:#000000;stroke-miterlimit:10;}
	.st2{fill:none;stroke:#000000;stroke-miterlimit:10;}
</style>
<g id="Calque_1" class="st0">
	
		<image style="display:inline;overflow:visible;" width="555" height="590" xlink:href="Institut peau line/icones_SVG/vernis-a-ongles-zao.jpg"  transform="matrix(0.1982 0 0 0.1982 20.125 16.7815)">
	</image>
</g>
<g id="Calque_2">
	<path class="st1" d="M95.9,130.3H54.1c-5,0-9.1-4.1-9.1-9.1v-40c0-5,4.1-9.1,9.1-9.1h41.8c5,0,9.1,4.1,9.1,9.1v40
		C105,126.2,100.9,130.3,95.9,130.3z"/>
	<ellipse class="st1" cx="74.9" cy="76" rx="30.5" ry="6.1"/>
	<path class="st2" d="M45,105.5c5.7,7.2,38,15.4,59.7-0.2"/>
	<path class="st1" d="M85.4,75H64.9c-4.1,0-7.4-3.3-7.4-7.4V27.4c0-4.1,3.3-7.4,7.4-7.4h20.5c4.1,0,7.4,3.3,7.4,7.4v40.3
		C92.8,71.7,89.4,75,85.4,75z"/>
	<line class="st2" x1="57.5" y1="34" x2="92.8" y2="52.5"/>
	<line class="st2" x1="57.5" y1="41.8" x2="92.8" y2="60.3"/>
</g>
</svg>
