<?xml version="1.0" encoding="utf-8"?>
<!-- Generator: Adobe Illustrator 22.0.0, SVG Export Plug-In . SVG Version: 6.00 Build 0)  -->
<svg version="1.1" xmlns="http://www.w3.org/2000/svg" xmlns:xlink="http://www.w3.org/1999/xlink" x="0px" y="0px"
	 viewBox="0 0 150 150" style="enable-background:new 0 0 150 150;" xml:space="preserve">
<style type="text/css">
	.st0{display:none;}
	.st1{fill:none;stroke:#000000;stroke-miterlimit:10;}
</style>
<g id="Calque_1" class="st0">
	
		<image style="display:inline;overflow:visible;" width="1100" height="1300" xlink:href="Institut peau line/icones_SVG/85073835-illustration-vectorielle-d-icône-de-silhouette-de-femmes-logo-de-visage-de-femmes-sur-fond-blanc.jpg"  transform="matrix(0.1818 0 0 0.1818 22 11.3182)">
	</image>
</g>
<g id="Calque_2">
	<path class="st1" d="M57.4,13.5C50,18.8,45,31.8,47.9,45.3"/>
	<path class="st1" d="M47.9,49.1c-1.2,4.8-10.2,7.8-10.5,10.3c-0.3,2.3,4.9,3.9,5.2,6.5c0.2,1.4-2.2,2.1-2.3,3.7
		c-0.2,2.7,6.2,3,5,4.5c-0.6,0.7-4.5-0.4-3.3,2.8c0.8,2.2,2.7,1.4,4.4,3.4c1.1,1.2,0.5,1.7,0,3.6c-0.5,1.7-0.3,4.6,1.3,5.4
		c0.8,0.4,2.7,1.9,6.4,1.1c4-0.9,9.3-3.8,12.6-2.8c5.7,1.7,9.8,10.3,15,19.9c4.6,8.5,11.3,17.3,16,24.2c2.1,3,4.8,7.5,7,9.2"/>
	<path class="st1" d="M47.9,49.1c-4,0-7.9-2.3-7.6-6.3"/>
	<path class="st1" d="M40.3,42.8c0.6,2.9,4.1,4.4,7.6,2.5"/>
	<path class="st1" d="M57.4,13.5c-3.6,22,10.5,34.8,24.8,41.9c4.9,2.5,11.2,5.9,12.8,9.1c5,10.8,10.1,24.1,20.1,31.6
		c4.4,3.3,6.8,6.7,13.8,6.9"/>
	<path class="st1" d="M128.8,103c-15,8.4-12,40.7-3.1,57"/>
	<path class="st1" d="M62,5.2c-4.7,34.6,15.2,45.9,34.6,50c50.5,10.6,30.3,46.1,33.1,43.6"/>
	<path class="st1" d="M62,5.2c-0.9,18.3,21,34,47.3,36.6"/>
	<path class="st1" d="M85.6,39.5"/>
	<path class="st1" d="M109.3,41.9"/>
	<path class="st1" d="M88.1,42.8c38.8-1.5,60.8,36.4,41.7,56"/>
	<path class="st1" d="M88.1,42.8c-2-2.2,7-2.9,21.2-1"/>
</g>
</svg>
