<?xml version="1.0" encoding="UTF-8" standalone="no"?>
<svg
   xmlns:dc="http://purl.org/dc/elements/1.1/"
   xmlns:cc="http://creativecommons.org/ns#"
   xmlns:rdf="http://www.w3.org/1999/02/22-rdf-syntax-ns#"
   xmlns:svg="http://www.w3.org/2000/svg"
   xmlns="http://www.w3.org/2000/svg"
   xmlns:xlink="http://www.w3.org/1999/xlink"
   xmlns:sodipodi="http://sodipodi.sourceforge.net/DTD/sodipodi-0.dtd"
   xmlns:inkscape="http://www.inkscape.org/namespaces/inkscape"
   width="101.21748mm"
   height="328.48224mm"
   viewBox="0 0 101.21748 328.48224"
   version="1.1"
   id="svg8"
   sodipodi:docname="phone_iso.svg"
   inkscape:version="1.0.1 (3bc2e813f5, 2020-09-07)">
  <defs
     id="defs2">
    <linearGradient
       inkscape:collect="always"
       id="linearGradient859">
      <stop
         style="stop-color:#4d4d4d;stop-opacity:1"
         offset="0"
         id="stop855" />
      <stop
         style="stop-color:#1a1a1a;stop-opacity:0;"
         offset="1"
         id="stop857" />
    </linearGradient>
    <linearGradient
       inkscape:collect="always"
       id="linearGradient1348">
      <stop
         style="stop-color:#e6e6e6;stop-opacity:1"
         offset="0"
         id="stop1344" />
      <stop
         style="stop-color:#666666;stop-opacity:1"
         offset="1"
         id="stop1346" />
    </linearGradient>
    <linearGradient
       inkscape:collect="always"
       id="linearGradient882">
      <stop
         style="stop-color:#b3b3b3;stop-opacity:1;"
         offset="0"
         id="stop878" />
      <stop
         style="stop-color:#b3b3b3;stop-opacity:0;"
         offset="1"
         id="stop880" />
    </linearGradient>
    <linearGradient
       inkscape:collect="always"
       id="linearGradient874">
      <stop
         style="stop-color:#cccccc;stop-opacity:1"
         offset="0"
         id="stop870" />
      <stop
         style="stop-color:#4d4d4d;stop-opacity:1"
         offset="1"
         id="stop872" />
    </linearGradient>
    <linearGradient
       inkscape:collect="always"
       xlink:href="#linearGradient874"
       id="linearGradient876"
       x1="193.14583"
       y1="21.166666"
       x2="103.1875"
       y2="174.625"
       gradientUnits="userSpaceOnUse" />
    <linearGradient
       inkscape:collect="always"
       xlink:href="#linearGradient882"
       id="linearGradient884"
       x1="154.38271"
       y1="197.08401"
       x2="139.38271"
       y2="184.09364"
       gradientUnits="userSpaceOnUse"
       gradientTransform="matrix(1,0,0,1.1547005,27.682667,-102.16598)" />
    <linearGradient
       inkscape:collect="always"
       xlink:href="#linearGradient874"
       id="linearGradient894"
       gradientUnits="userSpaceOnUse"
       x1="104.38271"
       y1="23.878941"
       x2="189.38271"
       y2="175.43338"
       gradientTransform="matrix(1,0,0,1.1547005,27.682667,-102.16598)" />
    <linearGradient
       inkscape:collect="always"
       xlink:href="#linearGradient1348"
       id="linearGradient1350"
       x1="11.622011"
       y1="85.124161"
       x2="193.48734"
       y2="190.12416"
       gradientUnits="userSpaceOnUse"
       gradientTransform="rotate(60,148.46021,109.76602)" />
    <linearGradient
       inkscape:collect="always"
       xlink:href="#linearGradient1348"
       id="linearGradient1358"
       x1="9.571435"
       y1="109.97622"
       x2="287.4838"
       y2="109.97622"
       gradientUnits="userSpaceOnUse"
       gradientTransform="rotate(60,148.46021,109.76602)" />
    <radialGradient
       inkscape:collect="always"
       xlink:href="#linearGradient859"
       id="radialGradient861"
       cx="148.83115"
       cy="296.88828"
       fx="148.83115"
       fy="296.88828"
       r="37.608627"
       gradientTransform="matrix(0.96517709,0.01360402,-0.00361416,0.25637627,6.255632,214.22112)"
       gradientUnits="userSpaceOnUse" />
  </defs>
  <sodipodi:namedview
     id="base"
     pagecolor="#ffffff"
     bordercolor="#666666"
     borderopacity="1.0"
     inkscape:pageopacity="0.0"
     inkscape:pageshadow="2"
     inkscape:zoom="0.7"
     inkscape:cx="282.81667"
     inkscape:cy="217.23888"
     inkscape:document-units="cm"
     inkscape:current-layer="layer1"
     inkscape:document-rotation="0"
     showgrid="true"
     showborder="true"
     inkscape:showpageshadow="false"
     inkscape:pagecheckerboard="false"
     inkscape:window-width="1920"
     inkscape:window-height="1001"
     inkscape:window-x="-9"
     inkscape:window-y="-9"
     inkscape:window-maximized="1">
    <inkscape:grid
       type="xygrid"
       id="grid833"
       originx="-97.803919"
       originy="28.939729"
       enabled="false" />
    <inkscape:grid
       type="axonomgrid"
       id="grid835"
       enabled="false"
       originx="-195.60817"
       originy="57.879461" />
  </sodipodi:namedview>
  <metadata
     id="metadata5">
    <rdf:RDF>
      <cc:Work
         rdf:about="">
        <dc:format>image/svg+xml</dc:format>
        <dc:type
           rdf:resource="http://purl.org/dc/dcmitype/StillImage" />
        <dc:title />
      </cc:Work>
    </rdf:RDF>
  </metadata>
  <g
     inkscape:label="Calque 1"
     inkscape:groupmode="layer"
     id="layer1"
     transform="translate(-97.803923,28.939728)">
    <path
       id="path1216"
       style="fill:url(#linearGradient1350);fill-opacity:1;stroke:url(#linearGradient1358);stroke-width:1.42289px;stroke-miterlimit:4;stroke-dasharray:none;stroke-opacity:1"
       d="m 194.6325,21.888336 c -1.58602,-2.659608 -3.62063,-4.88095 -5.84416,-6.167082 l -73.39168,-42.451442 c -2.42431,-1.402273 -4.62109,-1.429849 -6.25635,-0.341875 -0.17128,0.08465 -0.33717,0.180412 -0.49792,0.286871 -0.16513,0.08206 -0.32583,0.17422 -0.48115,0.276637 -0.15912,0.07951 -0.3139,0.168817 -0.4639,0.267236 -0.1531,0.07697 -0.30204,0.162239 -0.44669,0.256741 -0.14695,0.07422 -0.29012,0.156187 -0.42923,0.246664 -0.14115,0.07168 -0.27851,0.150867 -0.41243,0.23752 -0.13489,0.06887 -0.26697,0.144431 -0.39523,0.227029 -0.12889,0.06622 -0.25537,0.138435 -0.37821,0.217209 -0.12297,0.06349 -0.24309,0.132608 -0.36052,0.207548 -0.11704,0.06076 -0.23174,0.12617 -0.34376,0.197313 -0.11357,0.05922 -0.22455,0.123523 -0.33341,0.192495 -0.10786,0.05684 -0.21417,0.117759 -0.31775,0.183452 -0.10188,0.0542 -0.20225,0.111229 -0.30029,0.173373 -0.0958,0.05149 -0.19092,0.10503 -0.28329,0.163556 -0.0898,0.04884 -0.17907,0.09842 -0.26583,0.15348 -0.0839,0.04612 -0.16802,0.09238 -0.24928,0.143919 -0.0778,0.0432 -0.15583,0.0857 -0.23137,0.133583 -0.0721,0.04046 -0.14467,0.0796 -0.21482,0.124023 -0.0661,0.03744 -0.13295,0.07306 -0.19736,0.113947 -0.004,0.0021 -0.007,0.0043 -0.0112,0.0065 -0.0497,0.02592 -0.0971,0.05642 -0.14589,0.08423 -0.008,0.0048 -0.0157,0.0086 -0.0233,0.01344 -0.0359,0.01898 -0.0702,0.041 -0.10562,0.06098 -0.0188,0.01157 -0.0386,0.02121 -0.0573,0.03308 -0.0183,0.0099 -0.036,0.02111 -0.0541,0.03127 -0.0303,0.01825 -0.0618,0.03395 -0.0917,0.05297 -8.8e-4,4.84e-4 -0.002,0.0011 -0.003,0.0015 -0.0264,0.01373 -0.0513,0.0304 -0.0774,0.0447 -0.016,0.0099 -0.0329,0.01807 -0.0488,0.02816 -0.004,0.002 -0.007,0.0044 -0.0112,0.0065 -0.0146,0.0076 -0.0284,0.01701 -0.043,0.02481 -0.009,0.0045 -0.0168,0.01013 -0.0255,0.01473 -0.0104,0.0065 -0.0214,0.01177 -0.0318,0.01835 -0.0312,0.01876 -0.0636,0.03499 -0.0944,0.05452 -0.0255,0.0155 -0.0521,0.02871 -0.0774,0.0447 -0.0197,0.0121 -0.0404,0.02221 -0.06,0.03462 -0.0141,0.0087 -0.0289,0.01591 -0.043,0.02481 -1.857634,1.161058 -3.020802,3.727509 -3.017887,7.345747 l 0.162511,201.92081 c 0.0046,6.77997 4.100746,14.60485 9.183666,17.54471 l 73.39263,42.45208 c 2.23599,1.29326 4.27867,1.41811 5.86553,0.5765 0.0146,-0.008 0.0284,-0.017 0.043,-0.0248 0.0204,-0.0107 0.0397,-0.0236 0.0599,-0.0346 0.0262,-0.014 0.0513,-0.0304 0.0774,-0.0447 0.0323,-0.0164 0.0626,-0.0369 0.0944,-0.0545 0.0108,-0.006 0.021,-0.0126 0.0318,-0.0183 0.008,-0.005 0.0175,-0.01 0.026,-0.015 0.0139,-0.009 0.0287,-0.0157 0.0425,-0.0245 0.003,-0.002 0.008,-0.004 0.0112,-0.006 0.0166,-0.009 0.0323,-0.0193 0.0488,-0.0282 0.0256,-0.0155 0.052,-0.0289 0.0774,-0.0447 8.6e-4,-5.2e-4 0.002,-9.7e-4 0.003,-0.001 0.031,-0.0167 0.0609,-0.0359 0.0917,-0.053 0.0179,-0.0106 0.0364,-0.0204 0.0541,-0.0312 0.0197,-0.0103 0.0382,-0.0228 0.0578,-0.0334 0.0349,-0.0206 0.0705,-0.0395 0.10517,-0.0607 0.008,-0.004 0.0154,-0.009 0.0233,-0.0135 0.0485,-0.0283 0.0981,-0.0543 0.1459,-0.0842 0.003,-0.002 0.008,-0.004 0.0112,-0.006 0.0671,-0.0353 0.1318,-0.0754 0.19736,-0.11395 0.0735,-0.0378 0.14361,-0.0818 0.21482,-0.12402 0.0791,-0.041 0.15491,-0.0883 0.23182,-0.13384 0.0847,-0.0443 0.16671,-0.0939 0.24882,-0.14366 0.0904,-0.0476 0.17853,-0.0996 0.26584,-0.15348 0.0967,-0.05 0.19011,-0.1063 0.28329,-0.16356 0.10231,-0.0533 0.20191,-0.11195 0.30029,-0.17337 0.10812,-0.0567 0.21444,-0.11804 0.3182,-0.18371 0.11375,-0.0599 0.2253,-0.12431 0.33475,-0.19327 0.11664,-0.0604 0.23005,-0.12705 0.34141,-0.19827 0.12284,-0.064 0.24306,-0.1334 0.36044,-0.20873 0.12898,-0.0664 0.25435,-0.13992 0.37722,-0.21894 0.13526,-0.0688 0.26642,-0.14574 0.39467,-0.22901 0.14074,-0.072 0.27837,-0.15149 0.41192,-0.23841 0.147,-0.0745 0.28954,-0.15792 0.42869,-0.24865 0.15326,-0.0769 0.30162,-0.16375 0.44613,-0.25873 0.15906,-0.0799 0.31344,-0.16931 0.46338,-0.26815 0.16508,-0.0825 0.32487,-0.17555 0.48015,-0.27836 0.17105,-0.085 0.33685,-0.18098 0.49738,-0.28778 2.08666,-1.03143 3.4172,-3.69627 3.41409,-7.5649 L 197.97244,33.265706 c -0.003,-3.813486 -1.30077,-7.957871 -3.33994,-11.37737 z" />
    <rect
       style="fill:#333333;stroke-width:0.292558;stroke-opacity:0"
       id="rect846"
       width="105.83333"
       height="226.08073"
       x="123.33282"
       y="-92.496872"
       rx="10.583333"
       ry="12.22058"
       transform="matrix(0.8660254,0.5,0,1,0,0)" />
    <rect
       style="fill:#ffffff;fill-opacity:1;stroke:#646464;stroke-width:1.42157;stroke-miterlimit:4;stroke-dasharray:none;stroke-opacity:1"
       id="rect837"
       width="105.83333"
       height="226.08073"
       x="123.26601"
       y="-93.962799"
       rx="10.583333"
       ry="12.22058"
       transform="matrix(0.8660254,0.5,0,1,0,0)" />
    <rect
       style="fill:url(#linearGradient894);fill-opacity:1;stroke-width:0.238348;stroke-opacity:0"
       id="rect839"
       width="89.625"
       height="177.19843"
       x="131.37016"
       y="-77.724823"
       transform="matrix(0.8660254,0.5,0,1,0,0)" />
    <ellipse
       style="fill:url(#linearGradient884);fill-opacity:1;stroke-width:0.292558;stroke-opacity:0"
       id="path844"
       cx="176.18266"
       cy="116.30415"
       transform="matrix(0.8660254,0.5,0,1,0,0)"
       rx="10.583333"
       ry="12.22058" />
    <rect
       style="fill:#b3b3b3;stroke-width:0.20687;stroke-opacity:0"
       id="rect866"
       width="34.395832"
       height="1.5275726"
       x="158.98476"
       y="-83.835114"
       rx="0.52916664"
       ry="0.61102897"
       transform="matrix(0.8660254,0.5,0,1,0,0)" />
    <ellipse
       style="fill:#b3b3b3;stroke-width:0.292558;stroke-opacity:0"
       id="path868"
       cx="176.18266"
       cy="-87.654045"
       transform="matrix(0.8660254,0.5,0,1,0,0)"
       rx="1.984375"
       ry="2.2913587" />
    <ellipse
       style="fill:url(#radialGradient861);fill-opacity:1;stroke:none;stroke-width:1.5875"
       id="path853"
       cx="148.32529"
       cy="291.03802"
       rx="37.608627"
       ry="8.5044641" />
  </g>
</svg>
