<?xml version="1.0" encoding="UTF-8" standalone="no"?>
<svg
   xmlns:dc="http://purl.org/dc/elements/1.1/"
   xmlns:cc="http://creativecommons.org/ns#"
   xmlns:rdf="http://www.w3.org/1999/02/22-rdf-syntax-ns#"
   xmlns:svg="http://www.w3.org/2000/svg"
   xmlns="http://www.w3.org/2000/svg"
   xmlns:sodipodi="http://sodipodi.sourceforge.net/DTD/sodipodi-0.dtd"
   xmlns:inkscape="http://www.inkscape.org/namespaces/inkscape"
   width="64.798996mm"
   height="211.87379mm"
   viewBox="0 0 64.798996 211.87379"
   version="1.1"
   id="svg2616"
   sodipodi:docname="shape.svg"
   inkscape:version="1.0.1 (3bc2e813f5, 2020-09-07)">
  <defs
     id="defs2610" />
  <sodipodi:namedview
     id="base"
     pagecolor="#ffffff"
     bordercolor="#666666"
     borderopacity="1.0"
     inkscape:pageopacity="0.0"
     inkscape:pageshadow="2"
     inkscape:zoom="0.98994949"
     inkscape:cx="171.81509"
     inkscape:cy="345.64689"
     inkscape:document-units="mm"
     inkscape:current-layer="layer1"
     inkscape:document-rotation="0"
     showgrid="true"
     inkscape:window-width="1920"
     inkscape:window-height="1001"
     inkscape:window-x="-9"
     inkscape:window-y="-9"
     inkscape:window-maximized="1">
    <inkscape:grid
       type="axonomgrid"
       id="grid3185"
       originx="-39.437311"
       originy="-35.181414" />
  </sodipodi:namedview>
  <metadata
     id="metadata2613">
    <rdf:RDF>
      <cc:Work
         rdf:about="">
        <dc:format>image/svg+xml</dc:format>
        <dc:type
           rdf:resource="http://purl.org/dc/dcmitype/StillImage" />
        <dc:title></dc:title>
      </cc:Work>
    </rdf:RDF>
  </metadata>
  <g
     inkscape:label="Calque 1"
     inkscape:groupmode="layer"
     id="layer1"
     transform="translate(-39.437311,-35.181414)">
    <g
       id="g3297">
      <path
         style="fill:#333333;stroke-width:0.578862px"
         d="m 47.729,36.6414 31.5734,18.2289 c 4.5901,2.6501 8.2854,9.0505 8.2854,14.3507 l -1e-4,171.591 c 0,5.3 -3.6953,7.434 -8.2853,4.784 L 47.729,227.366 c -4.5901,-2.65 -8.2854,-9.05 -8.2854,-14.351 V 41.4249 c 0,-5.3002 3.6953,-7.4336 8.2854,-4.7835 z"
         id="path3197" />
      <path
         style="fill:#333333;stroke-width:0.578862px"
         d="m 47.7479,36.6414 31.5734,18.2289 c 4.5901,2.6501 8.2854,9.0505 8.2854,14.3507 l -1e-4,171.591 c 0,5.3 -3.6952,7.434 -8.2853,4.784 l -31.5734,-18.23 c -4.5901,-2.65 -8.2853,-9.05 -8.2853,-14.351 l -1e-4,-171.5901 c 0,-5.3002 3.6953,-7.4336 8.2854,-4.7835 z"
         id="path3199" />
      <path
         style="fill:#333333;stroke-width:0.578862px"
         d="m 47.7795,36.6414 31.5734,18.2289 c 4.5901,2.6501 8.2853,9.0505 8.2853,14.3507 v 171.591 c 0,5.3 -3.6953,7.434 -8.2854,4.784 l -31.5733,-18.23 c -4.5901,-2.65 -8.2854,-9.05 -8.2854,-14.351 V 41.4249 c 0,-5.3002 3.6952,-7.4336 8.2853,-4.7835 z"
         id="path3201" />
      <path
         style="fill:#333333;stroke-width:0.578862px"
         d="M 47.8236,36.6414 79.397,54.8703 c 4.5901,2.6501 8.2854,9.0505 8.2854,14.3507 l -1e-4,171.591 c 0,5.3 -3.6952,7.434 -8.2853,4.784 l -31.5734,-18.23 c -4.5901,-2.65 -8.2853,-9.05 -8.2853,-14.351 L 39.5382,41.4249 c 0,-5.3002 3.6953,-7.4336 8.2854,-4.7835 z"
         id="path3203" />
      <path
         style="fill:#333333;stroke-width:0.578862px"
         d="m 47.8804,36.6414 31.5734,18.2289 c 4.5901,2.6501 8.2853,9.0505 8.2853,14.3507 v 171.591 c 0,5.3 -3.6953,7.434 -8.2854,4.784 l -31.5733,-18.23 c -4.5901,-2.65 -8.2854,-9.05 -8.2854,-14.351 V 41.4249 c 0,-5.3002 3.6952,-7.4336 8.2853,-4.7835 z"
         id="path3205" />
      <path
         style="fill:#333333;stroke-width:0.578862px"
         d="m 47.9497,36.6414 31.5734,18.2289 c 4.5901,2.6501 8.2854,9.0505 8.2854,14.3507 v 171.591 c 0,5.3 -3.6953,7.434 -8.2854,4.784 l -31.5734,-18.23 c -4.59,-2.65 -8.2853,-9.05 -8.2853,-14.351 l -1e-4,-171.5901 c 0,-5.3002 3.6953,-7.4336 8.2854,-4.7835 z"
         id="path3207" />
      <path
         style="fill:#333333;stroke-width:0.578862px"
         d="m 48.0317,36.6414 31.5734,18.2289 c 4.5901,2.6501 8.2854,9.0505 8.2854,14.3507 l -1e-4,171.591 c 0,5.3 -3.6952,7.434 -8.2853,4.784 l -31.5734,-18.23 c -4.5901,-2.65 -8.2853,-9.05 -8.2853,-14.351 l -1e-4,-171.5901 c 0,-5.3002 3.6953,-7.4336 8.2854,-4.7835 z"
         id="path3209" />
      <path
         style="fill:#333333;stroke-width:0.578862px"
         d="m 48.1263,36.6414 31.5734,18.2289 c 4.5901,2.6501 8.2854,9.0505 8.2854,14.3507 v 171.591 c 0,5.3 -3.6953,7.434 -8.2854,4.784 l -31.5734,-18.23 c -4.59,-2.65 -8.2853,-9.05 -8.2853,-14.351 l -1e-4,-171.5901 c 0,-5.3002 3.6953,-7.4336 8.2854,-4.7835 z"
         id="path3211" />
      <path
         style="fill:#333333;stroke-width:0.578862px"
         d="M 48.2336,36.6414 79.807,54.8703 c 4.59,2.6501 8.2853,9.0505 8.2853,14.3507 v 171.591 c 0,5.3 -3.6953,7.434 -8.2854,4.784 l -31.5733,-18.23 c -4.5901,-2.65 -8.2854,-9.05 -8.2854,-14.351 V 41.4249 c 0,-5.3002 3.6952,-7.4336 8.2853,-4.7835 z"
         id="path3213" />
      <path
         style="fill:#333333;stroke-width:0.578862px"
         d="m 48.3534,36.6414 31.5734,18.2289 c 4.5901,2.6501 8.2853,9.0505 8.2853,14.3507 v 171.591 c 0,5.3 -3.6953,7.434 -8.2853,4.784 l -31.5734,-18.23 c -4.5901,-2.65 -8.2854,-9.05 -8.2854,-14.351 V 41.4249 c 0,-5.3002 3.6953,-7.4336 8.2853,-4.7835 z"
         id="path3215" />
      <path
         style="fill:#333333;stroke-width:0.578862px"
         d="m 48.4858,36.6414 31.5734,18.2289 c 4.5901,2.6501 8.2854,9.0505 8.2854,14.3507 v 171.591 c 0,5.3 -3.6953,7.434 -8.2854,4.784 l -31.5734,-18.23 c -4.5901,-2.65 -8.2853,-9.05 -8.2853,-14.351 L 40.2004,41.4249 c 0,-5.3002 3.6953,-7.4336 8.2854,-4.7835 z"
         id="path3217" />
      <path
         style="fill:#333333;stroke-width:0.578862px"
         d="m 48.6309,36.6414 31.5734,18.2289 c 4.5901,2.6501 8.2853,9.0505 8.2853,14.3507 v 171.591 c 0,5.3 -3.6952,7.434 -8.2853,4.784 l -31.5734,-18.23 c -4.5901,-2.65 -8.2854,-9.05 -8.2854,-14.351 V 41.4249 c 0,-5.3002 3.6953,-7.4336 8.2854,-4.7835 z"
         id="path3219" />
      <path
         style="fill:#333333;stroke-width:0.578862px"
         d="M 48.7886,36.6414 80.362,54.8703 c 4.5901,2.6501 8.2853,9.0505 8.2853,14.3507 v 171.591 c 0,5.3 -3.6953,7.434 -8.2854,4.784 l -31.5733,-18.23 c -4.5901,-2.65 -8.2854,-9.05 -8.2854,-14.351 V 41.4249 c 0,-5.3002 3.6952,-7.4336 8.2853,-4.7835 z"
         id="path3221" />
      <path
         style="fill:#333333;stroke-width:0.578862px"
         d="m 48.9588,36.6414 31.5734,18.2289 c 4.5901,2.6501 8.2854,9.0505 8.2854,14.3507 v 171.591 c 0,5.3 -3.6953,7.434 -8.2854,4.784 l -31.5734,-18.23 c -4.59,-2.65 -8.2853,-9.05 -8.2853,-14.351 L 40.6734,41.4249 c 0,-5.3002 3.6953,-7.4336 8.2854,-4.7835 z"
         id="path3223" />
      <path
         style="fill:#333333;stroke-width:0.578862px"
         d="m 49.1417,36.6414 31.5734,18.2289 c 4.5901,2.6501 8.2854,9.0505 8.2854,14.3507 v 171.591 c 0,5.3 -3.6953,7.434 -8.2854,4.784 l -31.5734,-18.23 c -4.59,-2.65 -8.2853,-9.05 -8.2853,-14.351 l -1e-4,-171.5901 c 0,-5.3002 3.6953,-7.4336 8.2854,-4.7835 z"
         id="path3225" />
      <path
         style="fill:#333333;stroke-width:0.578862px"
         d="m 49.3373,36.6414 31.5734,18.2289 c 4.5901,2.6501 8.2853,9.0505 8.2853,14.3507 v 171.591 c 0,5.3 -3.6953,7.434 -8.2853,4.784 l -31.5734,-18.23 c -4.5901,-2.65 -8.2854,-9.05 -8.2854,-14.351 V 41.4249 c 0,-5.3002 3.6952,-7.4336 8.2853,-4.7835 z"
         id="path3227" />
      <path
         style="fill:#333333;stroke-width:0.578862px"
         d="m 49.5454,36.6414 31.5734,18.2289 c 4.5901,2.6501 8.2853,9.0505 8.2853,14.3507 v 171.591 c 0,5.3 -3.6952,7.434 -8.2853,4.784 L 49.5454,227.366 C 44.9553,224.716 41.26,218.316 41.26,213.015 V 41.4249 c 0,-5.3002 3.6953,-7.4336 8.2853,-4.7835 z"
         id="path3229" />
      <path
         style="fill:#333333;stroke-width:0.578862px"
         d="m 49.7661,36.6414 31.5734,18.2289 c 4.5901,2.6501 8.2854,9.0505 8.2854,14.3507 v 171.591 c 0,5.3 -3.6953,7.434 -8.2854,4.784 l -31.5734,-18.23 c -4.5901,-2.65 -8.2853,-9.05 -8.2853,-14.351 l -1e-4,-171.5901 c 0,-5.3002 3.6953,-7.4336 8.2854,-4.7835 z"
         id="path3231" />
      <path
         style="fill:#333333;stroke-width:0.578862px"
         d="m 49.9995,36.6414 31.5734,18.2289 c 4.5901,2.6501 8.2853,9.0505 8.2853,14.3507 v 171.591 c 0,5.3 -3.6952,7.434 -8.2853,4.784 l -31.5734,-18.23 c -4.5901,-2.65 -8.2854,-9.05 -8.2854,-14.351 V 41.4249 c 0,-5.3002 3.6953,-7.4336 8.2853,-4.7835 z"
         id="path3233" />
      <path
         style="fill:#333333;stroke-width:0.578862px"
         d="m 50.2455,36.6414 31.5734,18.2289 c 4.59,2.6501 8.2853,9.0505 8.2853,14.3507 v 171.591 c 0,5.3 -3.6952,7.434 -8.2853,4.784 l -31.5734,-18.23 c -4.5901,-2.65 -8.2854,-9.05 -8.2854,-14.351 V 41.4249 c 0,-5.3002 3.6952,-7.4336 8.2853,-4.7835 z"
         id="path3235" />
      <path
         style="fill:#333333;stroke-width:0.578862px"
         d="m 50.504,36.6414 31.5734,18.2289 c 4.5901,2.6501 8.2854,9.0505 8.2854,14.3507 v 171.591 c 0,5.3 -3.6953,7.434 -8.2853,4.784 L 50.504,227.366 c -4.5901,-2.65 -8.2853,-9.05 -8.2853,-14.351 L 42.2186,41.4249 c 0,-5.3002 3.6953,-7.4336 8.2854,-4.7835 z"
         id="path3237" />
      <path
         style="fill:#333333;stroke-width:0.578862px"
         d="m 50.7752,36.6414 31.5734,18.2289 c 4.5901,2.6501 8.2854,9.0505 8.2854,14.3507 v 171.591 c 0,5.3 -3.6953,7.434 -8.2853,4.784 l -31.5735,-18.23 c -4.5901,-2.65 -8.2853,-9.05 -8.2853,-14.351 L 42.4898,41.4249 c 0,-5.3002 3.6953,-7.4336 8.2854,-4.7835 z"
         id="path3239" />
      <path
         style="fill:#333333;stroke-width:0.578862px"
         d="m 51.059,36.6414 31.5734,18.2289 c 4.5901,2.6501 8.2854,9.0505 8.2854,14.3507 v 171.591 c 0,5.3 -3.6952,7.434 -8.2853,4.784 L 51.059,227.366 c -4.59,-2.65 -8.2853,-9.05 -8.2853,-14.351 L 42.7736,41.4249 c 0,-5.3002 3.6953,-7.4336 8.2854,-4.7835 z"
         id="path3241" />
      <path
         style="fill:#333333;stroke-width:0.578862px"
         d="m 51.3555,36.6414 31.5734,18.2289 c 4.5901,2.6501 8.2853,9.0505 8.2853,14.3507 l 10e-5,171.591 c 0,5.3 -3.6953,7.434 -8.2854,4.784 l -31.5734,-18.23 c -4.5901,-2.65 -8.2854,-9.05 -8.2854,-14.351 V 41.4249 c 0,-5.3002 3.6952,-7.4336 8.2853,-4.7835 z"
         id="path3243" />
      <path
         style="fill:#333333;stroke-width:0.578862px"
         d="m 51.6645,36.6414 31.5734,18.2289 c 4.5901,2.6501 8.2854,9.0505 8.2854,14.3507 v 171.591 c 0,5.3 -3.6953,7.434 -8.2854,4.784 l -31.5734,-18.23 c -4.5901,-2.65 -8.2854,-9.05 -8.2854,-14.351 V 41.4249 c 0,-5.3002 3.6953,-7.4336 8.2854,-4.7835 z"
         id="path3245" />
      <path
         style="fill:#333333;stroke-width:0.578862px"
         d="m 51.9862,36.6414 31.5734,18.2289 c 4.59,2.6501 8.2853,9.0505 8.2853,14.3507 l 1e-4,171.591 c 0,5.3 -3.6953,7.434 -8.2854,4.784 l -31.5734,-18.23 c -4.5901,-2.65 -8.2854,-9.05 -8.2854,-14.351 V 41.4249 c 0,-5.3002 3.6952,-7.4336 8.2853,-4.7835 z"
         id="path3247" />
      <path
         style="fill:#333333;stroke-width:0.578862px"
         d="m 52.3204,36.6414 31.5734,18.2289 c 4.5901,2.6501 8.2854,9.0505 8.2854,14.3507 v 171.591 c 0,5.3 -3.6952,7.434 -8.2853,4.784 l -31.5735,-18.23 c -4.5901,-2.65 -8.2853,-9.05 -8.2853,-14.351 L 44.035,41.4249 c 0,-5.3002 3.6953,-7.4336 8.2854,-4.7835 z"
         id="path3249" />
      <path
         style="fill:#333333;stroke-width:0.578862px"
         d="m 52.6673,36.6414 31.5734,18.2289 c 4.5901,2.6501 8.2853,9.0505 8.2853,14.3507 l 1e-4,171.591 c 0,5.3 -3.6952,7.434 -8.2853,4.784 l -31.5735,-18.23 c -4.5901,-2.65 -8.2854,-9.05 -8.2854,-14.351 V 41.4249 c 0,-5.3001 3.6953,-7.4336 8.2854,-4.7835 z"
         id="path3251" />
      <path
         style="fill:#333333;stroke-width:0.578862px"
         d="m 53.0268,36.6414 31.5734,18.2289 c 4.5901,2.6501 8.2853,9.0505 8.2853,14.3507 l 1e-4,171.591 c 0,5.3 -3.6952,7.434 -8.2853,4.784 l -31.5735,-18.23 c -4.5901,-2.65 -8.2854,-9.05 -8.2854,-14.351 V 41.4249 c 0,-5.3001 3.6953,-7.4336 8.2853,-4.7835 z"
         id="path3253" />
      <path
         style="fill:#333333;stroke-width:0.578862px"
         d="m 53.3989,36.6414 31.5734,18.2289 c 4.5901,2.6501 8.2853,9.0505 8.2853,14.3507 l 1e-4,171.591 c 0,5.3 -3.6952,7.434 -8.2853,4.784 l -31.5735,-18.23 c -4.5901,-2.65 -8.2854,-9.05 -8.2854,-14.351 V 41.4249 c 0,-5.3001 3.6953,-7.4336 8.2854,-4.7835 z"
         id="path3255" />
      <path
         style="fill:#333333;stroke-width:0.578862px"
         d="M 53.7836,36.6414 85.357,54.8703 c 4.5901,2.6501 8.2854,9.0505 8.2854,14.3507 l 1e-4,171.591 c 0,5.3 -3.6953,7.434 -8.2854,4.784 l -31.5735,-18.23 c -4.5901,-2.65 -8.2853,-9.05 -8.2853,-14.351 l -1e-4,-171.5901 c 0,-5.3001 3.6953,-7.4336 8.2854,-4.7835 z"
         id="path3257" />
      <path
         style="fill:#333333;stroke-width:0.578862px"
         d="m 54.1809,36.6414 31.5734,18.2289 c 4.5901,2.6501 8.2854,9.0505 8.2854,14.3507 l 1e-4,171.591 c 0,5.3 -3.6953,7.434 -8.2853,4.784 l -31.5736,-18.23 c -4.59,-2.65 -8.2853,-9.05 -8.2853,-14.351 l -1e-4,-171.5901 c 0,-5.3001 3.6953,-7.4336 8.2854,-4.7835 z"
         id="path3259" />
      <path
         style="fill:#333333;stroke-width:0.578862px"
         d="m 54.5909,36.6414 31.5734,18.2289 c 4.5901,2.6501 8.2853,9.0505 8.2853,14.3507 l 2e-4,171.591 c 0,5.3 -3.6953,7.434 -8.2854,4.784 l -31.5735,-18.23 c -4.5901,-2.65 -8.2854,-9.05 -8.2854,-14.351 V 41.4249 c 0,-5.3001 3.6953,-7.4336 8.2854,-4.7835 z"
         id="path3261" />
      <path
         style="fill:#333333;stroke-width:0.578862px"
         d="m 55.0135,36.6414 31.5734,18.2289 c 4.59,2.6501 8.2853,9.0505 8.2853,14.3507 l 10e-5,171.591 c 0,5.3 -3.6952,7.434 -8.2853,4.784 l -31.5735,-18.23 c -4.5901,-2.65 -8.2854,-9.05 -8.2854,-14.351 V 41.4249 c 0,-5.3001 3.6952,-7.4336 8.2853,-4.7835 z"
         id="path3263" />
      <path
         style="fill:#333333;stroke-width:0.578862px"
         d="M 55.4486,36.6414 87.022,54.8703 c 4.5901,2.6501 8.2854,9.0505 8.2854,14.3507 l 1e-4,171.591 c 0,5.3 -3.6952,7.434 -8.2853,4.784 l -31.5736,-18.23 c -4.5901,-2.65 -8.2853,-9.05 -8.2853,-14.351 L 47.1632,41.4249 c 0,-5.3001 3.6953,-7.4336 8.2854,-4.7835 z"
         id="path3265" />
      <path
         style="fill:#333333;stroke-width:0.578862px"
         d="m 55.8964,36.6414 31.5734,18.2289 c 4.5901,2.6501 8.2854,9.0505 8.2854,14.3507 l 1e-4,171.591 c 0,5.3 -3.6952,7.434 -8.2853,4.784 l -31.5736,-18.23 c -4.5901,-2.65 -8.2853,-9.05 -8.2853,-14.351 L 47.611,41.4249 c 0,-5.3001 3.6953,-7.4336 8.2854,-4.7835 z"
         id="path3267" />
      <path
         style="fill:#333333;stroke-width:0.578862px"
         d="m 56.3568,36.6414 31.5734,18.2289 c 4.5901,2.6501 8.2854,9.0505 8.2854,14.3507 l 1e-4,171.591 c 0,5.3 -3.6952,7.434 -8.2853,4.784 l -31.5736,-18.23 c -4.5901,-2.65 -8.2853,-9.05 -8.2853,-14.351 l -1e-4,-171.59 c 0,-5.3002 3.6953,-7.4337 8.2854,-4.7836 z"
         id="path3269" />
      <path
         style="fill:#333333;stroke-width:0.578862px"
         d="m 56.8298,36.6414 31.5734,18.2289 c 4.5901,2.6501 8.2854,9.0505 8.2854,14.3507 l 2e-4,171.591 c 0,5.3 -3.6953,7.434 -8.2854,4.784 l -31.5736,-18.23 c -4.5901,-2.65 -8.2853,-9.05 -8.2853,-14.351 l -10e-5,-171.59 c 0,-5.3002 3.6953,-7.4337 8.2854,-4.7836 z"
         id="path3271" />
      <path
         style="fill:#333333;stroke-width:0.578862px"
         d="m 57.3155,36.6414 31.5734,18.2289 c 4.5901,2.6501 8.2853,9.0505 8.2853,14.3507 l 2e-4,171.591 c 0,5.3 -3.6953,7.434 -8.2853,4.784 l -31.5736,-18.23 c -4.5901,-2.65 -8.2854,-9.05 -8.2854,-14.351 V 41.425 c 0,-5.3002 3.6952,-7.4337 8.2853,-4.7836 z"
         id="path3273" />
      <path
         style="fill:#333333;stroke-width:0.578862px"
         d="m 57.8137,36.6414 31.5734,18.2289 c 4.5901,2.6501 8.2854,9.0505 8.2854,14.3507 l 2e-4,171.591 c 0,5.3 -3.6953,7.434 -8.2854,4.784 l -31.5736,-18.23 c -4.5901,-2.65 -8.2853,-9.05 -8.2853,-14.351 l -10e-5,-171.59 c 0,-5.3002 3.6953,-7.4337 8.2854,-4.7836 z"
         id="path3275" />
      <path
         style="fill:#333333;stroke-width:0.578862px"
         d="M 58.3246,36.6414 89.898,54.8703 c 4.5901,2.6501 8.2853,9.0505 8.2853,14.3507 l 2e-4,171.591 c 0,5.3 -3.6952,7.434 -8.2853,4.784 l -31.5736,-18.23 c -4.5901,-2.65 -8.2854,-9.05 -8.2854,-14.351 V 41.425 c 0,-5.3002 3.6952,-7.4337 8.2853,-4.7836 z"
         id="path3277" />
      <path
         style="fill:#333333;stroke-width:0.578862px"
         d="m 58.848,36.6414 31.5734,18.2289 c 4.5901,2.6501 8.2854,9.0505 8.2854,14.3507 l 2e-4,171.591 c 0,5.3 -3.6953,7.434 -8.2853,4.784 L 58.848,227.366 c -4.5901,-2.65 -8.2853,-9.05 -8.2853,-14.351 l -10e-5,-171.59 c 0,-5.3002 3.6953,-7.4337 8.2854,-4.7836 z"
         id="path3279" />
      <path
         style="fill:#333333;stroke-width:0.578862px"
         d="m 59.3841,36.6414 31.5734,18.2289 c 4.5901,2.6501 8.2854,9.0505 8.2854,14.3507 l 2e-4,171.591 c 0,5.3 -3.6953,7.434 -8.2853,4.784 l -31.5737,-18.23 c -4.5901,-2.65 -8.2853,-9.05 -8.2853,-14.351 l -10e-5,-171.59 c 0,-5.3002 3.6953,-7.4337 8.2854,-4.7836 z"
         id="path3281" />
      <path
         style="fill:#333333;stroke-width:0.578862px"
         d="m 59.9328,36.6414 31.5734,18.2289 c 4.5901,2.6501 8.2854,9.0505 8.2854,14.3507 l 2e-4,171.591 c 0,5.3 -3.6952,7.434 -8.2853,4.784 l -31.5737,-18.23 c -4.5901,-2.65 -8.2853,-9.05 -8.2853,-14.351 l -1e-4,-171.59 c 0,-5.3002 3.6953,-7.4337 8.2854,-4.7836 z"
         id="path3283" />
      <path
         style="fill:#333333;stroke-width:0.578862px"
         d="m 60.4941,36.6414 31.5734,18.2289 c 4.5901,2.6501 8.2855,9.0505 8.2855,14.3507 v 171.591 c 0,5.3 -3.6951,7.434 -8.2852,4.784 l -31.5737,-18.23 c -4.5901,-2.65 -8.2853,-9.05 -8.2853,-14.351 l -10e-5,-171.59 c 0,-5.3002 3.6953,-7.4337 8.2854,-4.7836 z"
         id="path3285" />
      <path
         style="fill:#333333;stroke-width:0.578862px"
         d="m 61.0681,36.6414 31.5734,18.2289 c 4.59,2.6501 8.2855,9.0505 8.2855,14.3507 v 171.591 c 0,5.3 -3.6952,7.434 -8.2853,4.784 l -31.5736,-18.23 c -4.5901,-2.65 -8.2854,-9.05 -8.2854,-14.351 V 41.425 c 0,-5.3002 3.6952,-7.4337 8.2853,-4.7836 z"
         id="path3287" />
      <path
         style="fill:#333333;stroke-width:0.578862px"
         d="M 61.6546,36.6414 93.228,54.8703 c 4.5901,2.6501 8.285,9.0505 8.285,14.3507 l 10e-4,171.591 c 0,5.3 -3.6956,7.434 -8.2857,4.784 l -31.5737,-18.23 c -4.5901,-2.65 -8.2854,-9.05 -8.2854,-14.351 V 41.425 c 0,-5.3002 3.6953,-7.4337 8.2854,-4.7836 z"
         id="path3289" />
      <path
         style="fill:#333333;stroke-width:0.578862px"
         d="m 62.2538,36.6414 31.5734,18.2289 c 4.59,2.6501 8.2858,9.0505 8.2858,14.3507 v 171.591 c 0,5.3 -3.6955,7.434 -8.2855,4.784 l -31.5737,-18.23 c -4.5901,-2.65 -8.2854,-9.05 -8.2854,-14.351 V 41.425 c 0,-5.3002 3.6952,-7.4337 8.2853,-4.7836 z"
         id="path3291" />
      <path
         style="fill:#333333;stroke-width:0.578862px"
         d="m 62.8655,36.6414 31.5734,18.2289 c 4.5901,2.6501 8.2851,9.0505 8.2851,14.3507 l 10e-4,171.591 c 0,5.3 -3.6957,7.434 -8.2858,4.784 l -31.5737,-18.23 c -4.5901,-2.65 -8.2853,-9.05 -8.2853,-14.351 l -10e-5,-171.59 c 0,-5.3002 3.6953,-7.4336 8.2854,-4.7836 z"
         id="path3293" />
      <path
         style="fill:#333333;stroke-width:0.578862px"
         d="m 63.4899,36.6414 31.5734,18.2289 c 4.5901,2.6501 8.2857,9.0505 8.2857,14.3507 v 171.591 c 0,5.3 -3.6953,7.434 -8.2854,4.784 l -31.5737,-18.23 c -4.5901,-2.65 -8.2854,-9.05 -8.2854,-14.351 V 41.425 c 0,-5.3002 3.6953,-7.4336 8.2854,-4.7836 z"
         id="path3295" />
    </g>
    <path
       id="rect3187"
       style="fill:#333333;stroke-width:0.578862"
       transform="matrix(0.8660254,0.5,0,1,0,0)"
       d="M 55.105389,9.0886955 H 91.56324 c 5.300176,0 9.5671,4.2669285 9.5671,9.5671045 v 171.59066 c 0,5.30018 -4.266924,9.5671 -9.5671,9.5671 H 55.105389 c -5.300176,0 -9.567105,-4.26692 -9.567105,-9.5671 V 18.6558 c 0,-5.300176 4.266929,-9.5671045 9.567105,-9.5671045 z" />
    <path
       id="rect3183"
       style="fill:#333333;stroke:#ececec;stroke-width:0.578862"
       transform="matrix(0.8660254,0.5,0,1,0,0)"
       d="m 74.047337,-0.38225207 h 36.457853 c 5.30017,0 9.5671,4.26692857 9.5671,9.56710437 V 180.77551 c 0,5.30018 -4.26693,9.56711 -9.5671,9.56711 H 74.047337 c -5.300176,0 -9.567105,-4.26693 -9.567105,-9.56711 V 9.1848523 c 0,-5.3001758 4.266929,-9.56710437 9.567105,-9.56710437 z" />
  </g>
</svg>
