<?xml version="1.0" encoding="UTF-8" standalone="no"?>
<svg
   xmlns:dc="http://purl.org/dc/elements/1.1/"
   xmlns:cc="http://creativecommons.org/ns#"
   xmlns:rdf="http://www.w3.org/1999/02/22-rdf-syntax-ns#"
   xmlns:svg="http://www.w3.org/2000/svg"
   xmlns="http://www.w3.org/2000/svg"
   xmlns:xlink="http://www.w3.org/1999/xlink"
   xmlns:sodipodi="http://sodipodi.sourceforge.net/DTD/sodipodi-0.dtd"
   xmlns:inkscape="http://www.inkscape.org/namespaces/inkscape"
   width="158.37759mm"
   height="410.54495mm"
   viewBox="0 0 158.3776 410.54494"
   version="1.1"
   id="svg1323"
   inkscape:version="1.0.1 (3bc2e813f5, 2020-09-07)"
   sodipodi:docname="tablette_iso.svg">
  <defs
     id="defs1317">
    <linearGradient
       inkscape:collect="always"
       id="linearGradient963">
      <stop
         style="stop-color:#4d4d4d;stop-opacity:1"
         offset="0"
         id="stop959" />
      <stop
         style="stop-color:#000000;stop-opacity:0;"
         offset="1"
         id="stop961" />
    </linearGradient>
    <linearGradient
       inkscape:collect="always"
       id="linearGradient1930">
      <stop
         style="stop-color:#e6e6e6;stop-opacity:1"
         offset="0"
         id="stop1926" />
      <stop
         style="stop-color:#808080;stop-opacity:1"
         offset="1"
         id="stop1928" />
    </linearGradient>
    <linearGradient
       inkscape:collect="always"
       id="linearGradient1914">
      <stop
         style="stop-color:#e6e6e6;stop-opacity:1"
         offset="0"
         id="stop1910" />
      <stop
         style="stop-color:#808080;stop-opacity:1"
         offset="1"
         id="stop1912" />
    </linearGradient>
    <linearGradient
       inkscape:collect="always"
       id="linearGradient1908">
      <stop
         style="stop-color:#e6e6e6;stop-opacity:1"
         offset="0"
         id="stop1904" />
      <stop
         style="stop-color:#808080;stop-opacity:1"
         offset="1"
         id="stop1906" />
    </linearGradient>
    <linearGradient
       inkscape:collect="always"
       xlink:href="#linearGradient1908"
       id="linearGradient1902"
       x1="112.0227"
       y1="222.67522"
       x2="98.132072"
       y2="236.6131"
       gradientUnits="userSpaceOnUse"
       gradientTransform="matrix(1,0,0,1.1547005,10.158883,39.571537)" />
    <linearGradient
       inkscape:collect="always"
       xlink:href="#linearGradient1914"
       id="linearGradient1916"
       x1="181.01669"
       y1="54.007107"
       x2="28.983299"
       y2="218.13576"
       gradientUnits="userSpaceOnUse" />
    <linearGradient
       inkscape:collect="always"
       xlink:href="#linearGradient1930"
       id="linearGradient1924"
       x1="107.08538"
       y1="41.506512"
       x2="102.99851"
       y2="45.451637"
       gradientUnits="userSpaceOnUse"
       gradientTransform="matrix(1,0,0,1.1547005,10.158883,39.571537)" />
    <linearGradient
       inkscape:collect="always"
       xlink:href="#linearGradient1914"
       id="linearGradient1943"
       gradientUnits="userSpaceOnUse"
       x1="181.01669"
       y1="54.007107"
       x2="28.983299"
       y2="218.13576"
       gradientTransform="matrix(1,0,0,1.1547005,10.158883,39.571537)" />
    <radialGradient
       inkscape:collect="always"
       xlink:href="#linearGradient963"
       id="radialGradient965"
       cx="104.7755"
       cy="404.32526"
       fx="104.7755"
       fy="404.32526"
       r="54.126591"
       gradientTransform="matrix(1.1199999,-5.7855706e-6,-2.1047237e-8,0.18475209,-13.425489,310.30067)"
       gradientUnits="userSpaceOnUse" />
  </defs>
  <sodipodi:namedview
     id="base"
     pagecolor="#ffffff"
     bordercolor="#666666"
     borderopacity="1.0"
     inkscape:pageopacity="0.0"
     inkscape:pageshadow="2"
     inkscape:zoom="0.7"
     inkscape:cx="180.5255"
     inkscape:cy="321.0165"
     inkscape:document-units="mm"
     inkscape:current-layer="layer1"
     inkscape:document-rotation="0"
     showgrid="true"
     inkscape:snap-grids="true"
     inkscape:window-width="1920"
     inkscape:window-height="1001"
     inkscape:window-x="-9"
     inkscape:window-y="-9"
     inkscape:window-maximized="1">
    <inkscape:grid
       type="axonomgrid"
       id="grid1939"
       originx="-25.829046"
       originy="20.544938" />
  </sodipodi:namedview>
  <metadata
     id="metadata1320">
    <rdf:RDF>
      <cc:Work
         rdf:about="">
        <dc:format>image/svg+xml</dc:format>
        <dc:type
           rdf:resource="http://purl.org/dc/dcmitype/StillImage" />
        <dc:title />
      </cc:Work>
    </rdf:RDF>
  </metadata>
  <g
     inkscape:label="Calque 1"
     inkscape:groupmode="layer"
     id="layer1"
     transform="translate(-25.829046,20.544939)">
    <g
       id="g2080"
       style="fill:#d40000"
       transform="rotate(-60,105.00007,142.15614)">
      <path
         style="fill:#d40000;stroke:#808080;stroke-width:0.578862px"
         d="m 143.956,50.2688 130.731,75.4772 c 4.59,2.65 4.59,6.917 0,9.567 L 82.6147,246.206 c -4.5901,2.65 -11.9806,2.65 -16.5707,0 L -64.6869,170.728 c -4.5901,-2.65 -4.5901,-6.917 0,-9.567 L 127.385,50.2688 c 4.59,-2.6501 11.981,-2.6501 16.571,0 z"
         id="path1980" />
      <path
         style="fill:#d40000;stroke:#808080;stroke-width:0.578862px"
         d="m 143.956,50.2548 130.731,75.4772 c 4.59,2.65 4.59,6.917 0,9.567 L 82.6147,246.192 c -4.5901,2.65 -11.9806,2.65 -16.5707,0 L -64.6869,170.714 c -4.5901,-2.65 -4.5901,-6.917 0,-9.567 L 127.385,50.2548 c 4.59,-2.6501 11.981,-2.6501 16.571,0 z"
         id="path1982" />
      <path
         style="fill:#d40000;stroke:#808080;stroke-width:0.578862px"
         d="m 143.956,50.2314 130.731,75.4776 c 4.59,2.65 4.59,6.917 0,9.567 L 82.6147,246.169 c -4.5901,2.65 -11.9806,2.65 -16.5707,0 L -64.6869,170.691 c -4.5901,-2.65 -4.5901,-6.917 0,-9.567 L 127.385,50.2314 c 4.59,-2.6501 11.981,-2.6501 16.571,0 z"
         id="path1984" />
      <path
         style="fill:#d40000;stroke:#808080;stroke-width:0.578862px"
         d="m 143.956,50.1986 130.731,75.4774 c 4.59,2.65 4.59,6.917 0,9.567 L 82.6147,246.136 c -4.5901,2.65 -11.9806,2.65 -16.5707,0 L -64.6869,170.658 c -4.5901,-2.65 -4.5901,-6.917 0,-9.567 L 127.385,50.1986 c 4.59,-2.65 11.981,-2.6501 16.571,0 z"
         id="path1986" />
      <path
         style="fill:#d40000;stroke:#808080;stroke-width:0.578862px"
         d="m 143.956,50.1565 130.731,75.4775 c 4.59,2.65 4.59,6.917 0,9.567 L 82.6147,246.094 c -4.5901,2.65 -11.9806,2.65 -16.5707,0 L -64.6869,170.616 c -4.5901,-2.65 -4.5901,-6.917 0,-9.567 L 127.385,50.1565 c 4.59,-2.6501 11.981,-2.6501 16.571,0 z"
         id="path1988" />
      <path
         style="fill:#d40000;stroke:#808080;stroke-width:0.578862px"
         d="m 143.956,50.105 130.731,75.478 c 4.59,2.65 4.59,6.917 0,9.567 L 82.6147,246.043 c -4.5901,2.65 -11.9806,2.65 -16.5707,0 L -64.6869,170.565 c -4.5901,-2.651 -4.5901,-6.917 0,-9.568 L 127.385,50.105 c 4.59,-2.65 11.981,-2.65 16.571,0 z"
         id="path1990" />
      <path
         style="fill:#d40000;stroke:#808080;stroke-width:0.578862px"
         d="m 143.956,50.0442 130.731,75.4778 c 4.59,2.65 4.59,6.917 0,9.567 L 82.6147,245.982 c -4.5901,2.65 -11.9806,2.65 -16.5707,0 L -64.6869,170.504 c -4.5901,-2.65 -4.5901,-6.917 0,-9.567 L 127.385,50.0442 c 4.59,-2.6501 11.981,-2.6501 16.571,0 z"
         id="path1992" />
      <path
         style="fill:#d40000;stroke:#808080;stroke-width:0.578862px"
         d="m 143.956,49.974 130.731,75.478 c 4.59,2.65 4.59,6.917 0,9.567 L 82.6147,245.912 c -4.5901,2.65 -11.9806,2.65 -16.5707,0 L -64.6869,170.434 c -4.5901,-2.651 -4.5901,-6.917 0,-9.568 L 127.385,49.974 c 4.59,-2.6501 11.981,-2.6501 16.571,0 z"
         id="path1994" />
      <path
         style="fill:#d40000;stroke:#808080;stroke-width:0.578862px"
         d="m 143.956,49.8945 130.731,75.4775 c 4.59,2.65 4.59,6.917 0,9.567 L 82.6147,245.832 c -4.5901,2.65 -11.9806,2.65 -16.5707,0 L -64.6869,170.354 c -4.5901,-2.65 -4.5901,-6.917 0,-9.567 L 127.385,49.8945 c 4.59,-2.6501 11.981,-2.6501 16.571,0 z"
         id="path1996" />
      <path
         style="fill:#d40000;stroke:#808080;stroke-width:0.578862px"
         d="m 143.956,49.8056 130.731,75.4774 c 4.59,2.65 4.59,6.917 0,9.567 L 82.6147,245.743 c -4.5901,2.65 -11.9806,2.65 -16.5707,0 L -64.6869,170.265 c -4.5901,-2.65 -4.5901,-6.917 0,-9.567 L 127.385,49.8056 c 4.59,-2.6501 11.981,-2.6501 16.571,0 z"
         id="path1998" />
      <path
         style="fill:#d40000;stroke:#808080;stroke-width:0.578862px"
         d="m 143.956,49.7073 130.731,75.4777 c 4.59,2.65 4.59,6.917 0,9.567 L 82.6147,245.645 c -4.5901,2.65 -11.9806,2.65 -16.5707,0 L -64.6869,170.167 c -4.5901,-2.65 -4.5901,-6.917 0,-9.567 L 127.385,49.7073 c 4.59,-2.6501 11.981,-2.6501 16.571,0 z"
         id="path2000" />
      <path
         style="fill:#d40000;stroke:#808080;stroke-width:0.578862px"
         d="m 143.956,49.5997 130.731,75.4773 c 4.59,2.65 4.59,6.917 0,9.567 L 82.6147,245.537 c -4.5901,2.65 -11.9806,2.65 -16.5707,0 L -64.6869,170.059 c -4.5901,-2.65 -4.5901,-6.917 0,-9.567 L 127.385,49.5997 c 4.59,-2.6501 11.981,-2.6501 16.571,0 z"
         id="path2002" />
      <path
         style="fill:#d40000;stroke:#808080;stroke-width:0.578862px"
         d="M 143.956,49.4827 274.687,124.96 c 4.59,2.65 4.59,6.917 0,9.567 L 82.6147,245.42 c -4.5901,2.65 -11.9806,2.65 -16.5707,0 L -64.6869,169.942 c -4.5901,-2.65 -4.5901,-6.917 0,-9.567 L 127.385,49.4827 c 4.59,-2.6501 11.981,-2.6501 16.571,0 z"
         id="path2004" />
      <path
         style="fill:#d40000;stroke:#808080;stroke-width:0.578862px"
         d="m 143.956,49.3564 130.731,75.4776 c 4.59,2.65 4.59,6.917 0,9.567 L 82.6147,245.294 c -4.5901,2.65 -11.9806,2.65 -16.5707,0 L -64.6869,169.816 c -4.5901,-2.65 -4.5901,-6.917 0,-9.567 L 127.385,49.3564 c 4.59,-2.6501 11.981,-2.6501 16.571,0 z"
         id="path2006" />
      <path
         style="fill:#d40000;stroke:#808080;stroke-width:0.578862px"
         d="m 143.956,49.2207 130.731,75.4773 c 4.59,2.65 4.59,6.917 0,9.567 L 82.6147,245.158 c -4.5901,2.65 -11.9806,2.65 -16.5707,0 L -64.6869,169.68 c -4.5901,-2.65 -4.5901,-6.917 0,-9.567 L 127.385,49.2207 c 4.59,-2.6501 11.981,-2.6501 16.571,0 z"
         id="path2008" />
      <path
         style="fill:#d40000;stroke:#808080;stroke-width:0.578862px"
         d="m 143.956,49.0756 130.731,75.4774 c 4.59,2.65 4.59,6.917 0,9.567 L 82.6147,245.013 c -4.5901,2.65 -11.9806,2.65 -16.5707,0 L -64.6869,169.535 c -4.5901,-2.65 -4.5901,-6.917 0,-9.567 L 127.385,49.0756 c 4.59,-2.6501 11.981,-2.6501 16.571,0 z"
         id="path2010" />
      <path
         style="fill:#d40000;stroke:#808080;stroke-width:0.578862px"
         d="m 143.956,48.9212 130.731,75.4778 c 4.59,2.65 4.59,6.917 0,9.567 L 82.6147,244.859 c -4.5901,2.65 -11.9806,2.65 -16.5707,0 L -64.6869,169.381 c -4.5901,-2.65 -4.5901,-6.917 0,-9.567 L 127.385,48.9212 c 4.59,-2.6501 11.981,-2.6501 16.571,0 z"
         id="path2012" />
      <path
         style="fill:#d40000;stroke:#808080;stroke-width:0.578862px"
         d="m 143.956,48.7574 130.731,75.4776 c 4.59,2.65 4.59,6.917 0,9.567 L 82.6147,244.695 c -4.5901,2.65 -11.9806,2.65 -16.5707,0 L -64.6869,169.217 c -4.5901,-2.65 -4.5901,-6.917 0,-9.567 L 127.385,48.7574 c 4.59,-2.6501 11.981,-2.6501 16.571,0 z"
         id="path2014" />
      <path
         style="fill:#d40000;stroke:#808080;stroke-width:0.578862px"
         d="m 143.956,48.5843 130.731,75.4777 c 4.59,2.65 4.59,6.917 0,9.567 L 82.6147,244.522 c -4.5901,2.65 -11.9806,2.65 -16.5707,0 L -64.6869,169.044 c -4.5901,-2.65 -4.5901,-6.917 0,-9.567 L 127.385,48.5843 c 4.59,-2.6501 11.981,-2.6501 16.571,0 z"
         id="path2016" />
      <path
         style="fill:#d40000;stroke:#808080;stroke-width:0.578862px"
         d="m 143.956,48.4018 130.731,75.4772 c 4.59,2.65 4.59,6.917 0,9.567 L 82.6147,244.339 c -4.5901,2.65 -11.9806,2.65 -16.5707,0 L -64.6869,168.861 c -4.5901,-2.65 -4.5901,-6.917 0,-9.567 L 127.385,48.4018 c 4.59,-2.6501 11.981,-2.6501 16.571,0 z"
         id="path2018" />
      <path
         style="fill:#d40000;stroke:#808080;stroke-width:0.578862px"
         d="m 143.956,48.2099 130.731,75.4771 c 4.59,2.65 4.59,6.917 0,9.568 L 82.6147,244.147 c -4.5901,2.65 -11.9806,2.65 -16.5707,0 L -64.6869,168.67 c -4.5901,-2.651 -4.5901,-6.917 0,-9.568 L 127.385,48.2099 c 4.59,-2.65 11.981,-2.6501 16.571,0 z"
         id="path2020" />
      <path
         style="fill:#d40000;stroke:#808080;stroke-width:0.578862px"
         d="m 143.956,48.0087 130.731,75.4773 c 4.59,2.65 4.59,6.917 0,9.567 L 82.6147,243.946 c -4.5901,2.65 -11.9806,2.65 -16.5707,0 L -64.6869,168.468 c -4.5901,-2.65 -4.5901,-6.917 0,-9.567 L 127.385,48.0087 c 4.59,-2.6501 11.981,-2.6501 16.571,0 z"
         id="path2022" />
      <path
         style="fill:#d40000;stroke:#808080;stroke-width:0.578862px"
         d="m 143.956,47.7981 130.731,75.4779 c 4.59,2.65 4.59,6.917 0,9.567 L 82.6147,243.736 c -4.5901,2.65 -11.9806,2.65 -16.5707,0 L -64.6869,168.258 c -4.5901,-2.65 -4.5901,-6.917 0,-9.567 L 127.385,47.7982 c 4.59,-2.6501 11.981,-2.6501 16.571,0 z"
         id="path2024" />
      <path
         style="fill:#d40000;stroke:#808080;stroke-width:0.578862px"
         d="m 143.956,47.5782 130.731,75.4778 c 4.59,2.65 4.59,6.917 0,9.567 L 82.6147,243.516 c -4.5901,2.65 -11.9806,2.65 -16.5707,0 L -64.6869,168.038 c -4.5901,-2.65 -4.5901,-6.917 0,-9.567 L 127.385,47.5782 c 4.59,-2.65 11.981,-2.6501 16.571,0 z"
         id="path2026" />
      <path
         style="fill:#d40000;stroke:#808080;stroke-width:0.578862px"
         d="m 143.956,47.3489 130.731,75.4771 c 4.59,2.65 4.59,6.917 0,9.568 L 82.6147,243.286 c -4.5901,2.65 -11.9806,2.65 -16.5707,0 L -64.6869,167.809 c -4.5901,-2.65 -4.5901,-6.917 0,-9.567 L 127.385,47.349 c 4.59,-2.6501 11.981,-2.6501 16.571,-10e-5 z"
         id="path2028" />
      <path
         style="fill:#d40000;stroke:#808080;stroke-width:0.578862px"
         d="m 143.956,47.1103 130.731,75.4777 c 4.59,2.65 4.59,6.917 0,9.567 L 82.6147,243.048 c -4.5901,2.65 -11.9806,2.65 -16.5707,0 L -64.6869,167.57 c -4.5901,-2.65 -4.5901,-6.917 0,-9.567 L 127.385,47.1103 c 4.59,-2.6501 11.981,-2.6501 16.571,0 z"
         id="path2030" />
      <path
         style="fill:#d40000;stroke:#808080;stroke-width:0.578862px"
         d="M 143.956,46.8623 274.687,122.34 c 4.59,2.65 4.59,6.917 0,9.567 L 82.6147,242.8 c -4.5901,2.65 -11.9806,2.65 -16.5707,0 L -64.6869,167.322 c -4.5901,-2.65 -4.5901,-6.917 0,-9.567 L 127.385,46.8623 c 4.59,-2.6501 11.981,-2.6501 16.571,0 z"
         id="path2032" />
      <path
         style="fill:#d40000;stroke:#808080;stroke-width:0.578862px"
         d="m 143.956,46.6049 130.731,75.4771 c 4.59,2.65 4.59,6.917 0,9.567 L 82.6147,242.542 c -4.5901,2.65 -11.9806,2.65 -16.5707,0 L -64.6869,167.065 c -4.5901,-2.65 -4.5901,-6.917 0,-9.567 L 127.385,46.6049 c 4.59,-2.65 11.981,-2.65 16.571,0 z"
         id="path2034" />
      <path
         style="fill:#d40000;stroke:#808080;stroke-width:0.578862px"
         d="m 143.956,46.3382 130.731,75.4778 c 4.59,2.65 4.59,6.917 0,9.567 L 82.6147,242.276 c -4.5901,2.65 -11.9806,2.65 -16.5707,0 L -64.6869,166.798 c -4.5901,-2.65 -4.5901,-6.917 0,-9.567 L 127.385,46.3382 c 4.59,-2.6501 11.981,-2.6501 16.571,0 z"
         id="path2036" />
      <path
         style="fill:#d40000;stroke:#808080;stroke-width:0.578862px"
         d="M 143.956,46.0621 274.687,121.54 c 4.59,2.65 4.59,6.917 0,9.567 L 82.6147,242 c -4.5901,2.65 -11.9806,2.65 -16.5707,0 L -64.6869,166.522 c -4.5901,-2.65 -4.5901,-6.917 0,-9.567 L 127.385,46.0622 c 4.59,-2.6501 11.981,-2.6501 16.571,-10e-5 z"
         id="path2038" />
      <path
         style="fill:#d40000;stroke:#808080;stroke-width:0.578862px"
         d="m 143.956,45.7767 130.731,75.4773 c 4.59,2.65 4.59,6.917 0,9.567 L 82.6147,241.714 c -4.5901,2.65 -11.9806,2.65 -16.5707,0 L -64.6869,166.237 c -4.5901,-2.651 -4.5901,-6.917 0,-9.568 L 127.385,45.7767 c 4.59,-2.6501 11.981,-2.6501 16.571,0 z"
         id="path2040" />
      <path
         style="fill:#d40000;stroke:#808080;stroke-width:0.578862px"
         d="m 143.956,45.4819 130.731,75.4771 c 4.59,2.65 4.59,6.917 0,9.567 L 82.6147,241.419 c -4.5901,2.65 -11.9806,2.65 -16.5707,0 L -64.6869,165.942 c -4.5901,-2.65 -4.5901,-6.917 0,-9.567 L 127.385,45.4819 c 4.59,-2.6501 11.981,-2.6501 16.571,0 z"
         id="path2042" />
      <path
         style="fill:#d40000;stroke:#808080;stroke-width:0.578862px"
         d="m 143.956,45.1777 130.731,75.4773 c 4.59,2.65 4.59,6.917 0,9.567 L 82.6147,241.115 c -4.5901,2.65 -11.9806,2.65 -16.5707,0 L -64.6869,165.638 c -4.5901,-2.65 -4.5901,-6.917 0,-9.567 L 127.385,45.1778 c 4.59,-2.6501 11.981,-2.6501 16.571,0 z"
         id="path2044" />
      <path
         style="fill:#d40000;stroke:#808080;stroke-width:0.578862px"
         d="m 143.956,44.8642 130.731,75.4778 c 4.59,2.65 4.59,6.917 0,9.567 L 82.6147,240.802 c -4.5901,2.65 -11.9806,2.65 -16.5707,0 L -64.6869,165.324 c -4.5901,-2.65 -4.5901,-6.917 0,-9.567 L 127.385,44.8643 c 4.59,-2.6501 11.981,-2.6501 16.571,0 z"
         id="path2046" />
      <path
         style="fill:#d40000;stroke:#808080;stroke-width:0.578862px"
         d="m 143.956,44.5413 130.731,75.4777 c 4.59,2.65 4.59,6.917 0,9.567 L 82.6147,240.479 c -4.5901,2.65 -11.9806,2.65 -16.5707,0 L -64.6869,165.001 c -4.5901,-2.65 -4.5901,-6.917 0,-9.567 L 127.385,44.5414 c 4.59,-2.6501 11.981,-2.6501 16.571,0 z"
         id="path2048" />
      <path
         style="fill:#d40000;stroke:#808080;stroke-width:0.578862px"
         d="m 143.956,44.2091 130.731,75.4779 c 4.59,2.65 4.59,6.917 0,9.567 L 82.6147,240.147 c -4.5901,2.65 -11.9806,2.65 -16.5707,0 L -64.6869,164.669 c -4.5901,-2.65 -4.5901,-6.917 0,-9.567 L 127.385,44.2092 c 4.59,-2.6501 11.981,-2.6501 16.571,0 z"
         id="path2050" />
      <path
         style="fill:#d40000;stroke:#808080;stroke-width:0.578862px"
         d="m 143.956,43.8675 130.731,75.4775 c 4.59,2.65 4.59,6.917 0,9.567 L 82.6147,239.805 c -4.5901,2.65 -11.9806,2.65 -16.5707,0 L -64.6869,164.327 c -4.5901,-2.65 -4.5901,-6.917 0,-9.567 L 127.385,43.8676 c 4.59,-2.6501 11.981,-2.6501 16.571,0 z"
         id="path2052" />
      <path
         style="fill:#d40000;stroke:#808080;stroke-width:0.578862px"
         d="m 143.956,43.5166 130.731,75.4774 c 4.59,2.65 4.59,6.917 0,9.567 L 82.6147,239.454 c -4.5901,2.65 -11.9806,2.65 -16.5707,0 L -64.6869,163.977 c -4.5901,-2.651 -4.5901,-6.917 0,-9.568 L 127.385,43.5166 c 4.59,-2.6501 11.981,-2.6501 16.571,0 z"
         id="path2054" />
      <path
         style="fill:#d40000;stroke:#808080;stroke-width:0.578862px"
         d="m 143.956,43.1563 130.731,75.4777 c 4.59,2.65 4.59,6.917 0,9.567 L 82.6147,239.094 c -4.5901,2.65 -11.9806,2.65 -16.5707,0 L -64.6869,163.616 c -4.5901,-2.65 -4.5901,-6.917 0,-9.567 L 127.385,43.1563 c 4.59,-2.6501 11.981,-2.6501 16.571,0 z"
         id="path2056" />
      <path
         style="fill:#d40000;stroke:#808080;stroke-width:0.578862px"
         d="m 143.956,42.7866 130.731,75.4774 c 4.59,2.65 4.59,6.917 0,9.567 L 82.6147,238.724 c -4.5901,2.65 -11.9806,2.65 -16.5707,0 L -64.6869,163.247 c -4.5901,-2.65 -4.5901,-6.917 0,-9.567 L 127.385,42.7867 c 4.59,-2.6501 11.981,-2.6501 16.571,0 z"
         id="path2058" />
      <path
         style="fill:#d40000;stroke:#808080;stroke-width:0.578862px"
         d="m 143.956,42.4076 130.731,75.4774 c 4.59,2.65 4.59,6.917 0,9.567 L 82.6147,238.345 c -4.5901,2.65 -11.9806,2.65 -16.5707,0 L -64.6869,162.868 c -4.5901,-2.65 -4.5901,-6.917 0,-9.567 L 127.385,42.4076 c 4.59,-2.6501 11.981,-2.6501 16.571,0 z"
         id="path2060" />
      <path
         style="fill:#d40000;stroke:#808080;stroke-width:0.578862px"
         d="m 143.956,42.0192 130.731,75.4778 c 4.59,2.65 4.59,6.917 0,9.567 L 82.6147,237.957 c -4.5901,2.65 -11.9806,2.65 -16.5707,0 L -64.6869,162.479 c -4.5901,-2.65 -4.5901,-6.917 0,-9.567 L 127.385,42.0193 c 4.59,-2.6501 11.981,-2.6501 16.571,0 z"
         id="path2062" />
      <path
         style="fill:#d40000;stroke:#808080;stroke-width:0.578862px"
         d="m 143.956,41.6214 130.731,75.4776 c 4.59,2.65 4.59,6.917 0,9.567 L 82.6147,237.559 c -4.5901,2.65 -11.9806,2.65 -16.5707,0 L -64.6869,162.082 c -4.5901,-2.65 -4.5901,-6.917 0,-9.568 L 127.385,41.6215 c 4.59,-2.6501 11.981,-2.6501 16.571,0 z"
         id="path2064" />
      <path
         style="fill:#d40000;stroke:#808080;stroke-width:0.578862px"
         d="m 143.956,41.2143 130.731,75.4777 c 4.59,2.65 4.59,6.917 0,9.567 L 82.6147,237.152 c -4.5901,2.65 -11.9806,2.65 -16.5707,0 L -64.6869,161.675 c -4.5901,-2.651 -4.5901,-6.917 0,-9.568 L 127.385,41.2144 c 4.59,-2.6501 11.981,-2.6501 16.571,0 z"
         id="path2066" />
      <path
         style="fill:#d40000;stroke:#808080;stroke-width:0.578862px"
         d="m 143.956,40.7979 130.731,75.4771 c 4.59,2.65 4.59,6.917 0,9.567 L 82.6147,236.735 c -4.5901,2.65 -11.9806,2.65 -16.5707,0 L -64.6869,161.258 c -4.5901,-2.65 -4.5901,-6.917 0,-9.567 L 127.385,40.798 c 4.59,-2.6501 11.981,-2.6501 16.571,0 z"
         id="path2068" />
      <path
         style="fill:#d40000;stroke:#808080;stroke-width:0.578862px"
         d="m 143.956,40.3721 130.731,75.4769 c 4.59,2.651 4.59,6.917 0,9.568 L 82.6147,236.309 c -4.5901,2.651 -11.9806,2.651 -16.5707,0 L -64.6869,160.832 c -4.5901,-2.65 -4.5901,-6.917 0,-9.567 L 127.385,40.3721 c 4.59,-2.65 11.981,-2.65 16.571,0 z"
         id="path2070" />
      <path
         style="fill:#d40000;stroke:#808080;stroke-width:0.578862px"
         d="m 143.956,39.9369 130.731,75.4771 c 4.59,2.65 4.59,6.917 0,9.567 L 82.6147,235.874 c -4.5901,2.65 -11.9806,2.65 -16.5707,0 L -64.6869,160.397 c -4.5901,-2.65 -4.5901,-6.917 0,-9.567 L 127.385,39.937 c 4.59,-2.6501 11.981,-2.6501 16.571,0 z"
         id="path2072" />
      <path
         style="fill:#d40000;stroke:#808080;stroke-width:0.578862px"
         d="M 143.956,39.4924 274.687,114.97 c 4.59,2.65 4.59,6.917 0,9.567 L 82.6147,235.43 c -4.5901,2.65 -11.9806,2.65 -16.5707,0 L -64.6869,159.953 c -4.5901,-2.65 -4.5901,-6.917 0,-9.567 L 127.385,39.4924 c 4.59,-2.65 11.981,-2.65 16.571,0 z"
         id="path2074" />
      <path
         style="fill:#d40000;stroke:#808080;stroke-width:0.578862px"
         d="m 143.956,39.0385 130.731,75.4775 c 4.59,2.65 4.59,6.917 0,9.567 L 82.6147,234.976 c -4.5901,2.65 -11.9806,2.65 -16.5707,0 L -64.6869,159.499 c -4.5901,-2.65 -4.5901,-6.917 0,-9.567 L 127.385,39.0386 c 4.59,-2.6501 11.981,-2.6501 16.571,0 z"
         id="path2076" />
      <path
         style="fill:#d40000;stroke:#808080;stroke-width:0.578862px"
         d="m 143.956,38.5752 130.731,75.4778 c 4.59,2.65 4.59,6.917 0,9.567 L 82.6147,234.513 c -4.5901,2.65 -11.9806,2.65 -16.5707,0 L -64.6869,159.036 c -4.5901,-2.651 -4.5901,-6.917 0,-9.568 L 127.385,38.5753 c 4.59,-2.6501 11.981,-2.6501 16.571,0 z"
         id="path2078" />
    </g>
    <rect
       style="fill:#ffffff;stroke:#1a1a1a;stroke-width:0.578862"
       id="rect1886"
       width="170.08928"
       height="240.92001"
       x="30.114244"
       y="76.233276"
       ry="9.5670948"
       transform="matrix(0.8660254,-0.5,0,1,0,0)" />
    <rect
       style="fill:url(#linearGradient1943);fill-opacity:1;stroke:none;stroke-width:0.485396"
       id="rect1888"
       width="152.0334"
       height="189.51944"
       x="39.142193"
       y="101.93357"
       transform="matrix(0.8660254,-0.5,0,1,0,0)" />
    <ellipse
       style="fill:url(#linearGradient1902);fill-opacity:1;stroke:none;stroke-width:0.578862"
       id="path1890"
       cx="115.15888"
       cy="304.73633"
       transform="matrix(0.8660254,-0.5,0,1,0,0)"
       rx="7.0870538"
       ry="8.1834249" />
    <ellipse
       style="fill:url(#linearGradient1924);fill-opacity:1;stroke:none;stroke-width:0.284313;stroke-miterlimit:4;stroke-dasharray:none"
       id="path1892"
       cx="115.15888"
       cy="89.763206"
       transform="matrix(0.8660254,-0.5,0,1,0,0)"
       rx="1.8898809"
       ry="2.1822464" />
    <rect
       style="fill:none;stroke:#ffffff;stroke-width:0.284313;stroke-miterlimit:4;stroke-dasharray:none"
       id="rect1894"
       width="5.1026788"
       height="5.892066"
       x="112.60754"
       y="302.04123"
       rx="1.3229166"
       ry="1.5275725"
       transform="matrix(0.8660254,-0.5,0,1,0,0)" />
    <ellipse
       style="fill:url(#radialGradient965);fill-opacity:1;stroke:none;stroke-width:1.5875"
       id="path957"
       cx="105.01785"
       cy="381.25"
       rx="54.126591"
       ry="8.75" />
  </g>
</svg>
